<?xml version="1.0" encoding="utf-8"?>
<!-- Generator: Adobe Illustrator 25.0.1, SVG Export Plug-In . SVG Version: 6.00 Build 0)  -->
<svg version="1.1" id="Capa_1" xmlns="http://www.w3.org/2000/svg" xmlns:xlink="http://www.w3.org/1999/xlink" x="0px" y="0px"
	 viewBox="0 0 92.1 93.1" style="enable-background:new 0 0 92.1 93.1;" xml:space="preserve">
 <defs>
        <style>.cls-1{fill: #ebebef;;stroke:#fff;stroke-miterlimit:3.86;stroke-width:0.25px;}</style>
    </defs>
	<path id="path3828-6_1_" class="cls-1" d="M31.3,7.4l-0.1-0.1l0.1-0.1l-0.1-0.1L31,7.3L31,7.5h-0.1l-0.1-0.1l-0.5,0l-0.1-0.1l-0.2,0
	l0-0.1l-0.2,0l-0.1-0.1l-0.2,0l-0.1,0L29.5,7l0.3-0.1L30,6.7l0-0.3l-0.1-0.1L30,6.3l0.2,0l0.1-0.1V5.8l0.1-0.1l0,0l0.1,0l0-0.1
	l0.1-0.1l0.2,0L31,5.4l0.2,0.2l-0.1,0.2l0,0.2l0.2,0.1h0.2l0.2,0l0,0.3l-0.1,0.2l0.2,0.1l0.4-0.1l0.1-0.1l0.3,0.1v0.1l0.3,0L33,6.7
	l0.2,0.1V7L33,7.2l0,0.2l-0.2,0.1l-0.1-0.1l-0.1,0.1l0.1,0.2l0.1,0.2l-0.1,0l-0.1-0.1h-0.2l0-0.1l0-0.1l-0.3-0.2l-0.1,0.2l-0.3-0.1
	l-0.1-0.1l-0.3,0L31.3,7.4z"/>
	<path id="path3832_1_" class="cls-1" d="M30.7,10.1l-0.1-0.1l-0.3,0L30.2,10l-0.1,0l0,0.1l-0.2,0.2l-0.1,0l-0.3,0.1h-0.3l-0.3,0.1
	l0-0.1l-0.1,0l0-0.1l-0.1-0.1l-0.1-0.2l-0.2-0.1l0.2-0.1l0.3-0.2L29,9.6l0.1-0.2l0-0.2V8.9l0-0.4l0.2-0.6l0.1-0.4l0.2,0h0.1l0.2,0
	l0.2-0.1l0.2,0l0.1,0.1l0.5,0l0.1,0.1H31L31,7.3l0.2-0.2l0.1,0.1l-0.1,0.1l0.1,0.1l-0.1,0.1l0.1,0.1l0.1,0.2l0.1,0.1L31.6,8l0.2,0.1
	l0,0.2l-0.2,0.2l0,0.2l0.1,0l0.1,0.1l0,0.2l-0.1,0l-0.1,0.2l-0.1,0l-0.1,0.1v0.2l-0.1,0.2l-0.2,0l-0.2,0l-0.1,0.1L30.7,10.1z"/>
	<path id="path3838_1_" class="cls-1" d="M29.4,13.5l-0.3-0.1L29,13.2l-0.2,0L28.8,13h-0.1l-0.1,0.1L28.4,13v-0.2l-0.1-0.1l0.1-0.1
	l-0.1-0.1l0-0.4l-0.2-0.3l0-0.2l0.1-0.1l0-0.2L28,11.2L27.9,11L28,11l0.1-0.1l0.2-0.1h0.2l0.1-0.1l0.1-0.1l0.1,0l0,0.1l0.3-0.1h0.3
	l0.3-0.1l0.1,0l0.2-0.2l0-0.1l0.1,0l0.1,0.1l0.3,0l0.1,0.1l0.1,0.1h0.1l0.1,0.1h0.1l0.1,0.1l0,0.2l0.1,0.1l0.2,0.1l0.1,0.1l0,0.2
	l0.1,0.1l0.1,0.2l0.3,0l0.1-0.1l0.1-0.1l0,0.2L32,11.7l0,0.2l-0.1,0.2l-0.2,0l-0.2,0.1l-0.2,0.2l-0.2,0l-0.1,0.1l0.1,0.2l-0.2,0.2
	l-0.2,0l-0.1,0l-0.2,0.1L30,13.1l-0.2,0l-0.2,0l-0.2,0.1L29.4,13.5L29.4,13.5z"/>
	<path id="path3876_1_" class="cls-1" d="M37.3,13.5l0-0.3l-0.1-0.1l-0.1,0.2l-0.4,0.3l-0.2-0.1l-0.3,0.2v0.1l-0.2,0.1l-0.2-0.1l-0.1,0
	l-0.2-0.3l0-0.1l-0.2-0.1l-0.3,0L35,13.2l-0.2,0.1l-0.3,0l-0.1,0l-0.3,0l-0.1,0.1l0-0.3L34,13l0.1-0.1l-0.1,0l-0.2,0.1l0,0.2
	l-0.1,0.1l-0.1,0l0-0.1l-0.2,0.1l-0.2,0.2l-0.1,0l0,0.3L32.8,14l-0.4,0.2h-0.2l0,0.2l0.1,0.3l0.2,0.1l0,0.2l0.3,0.1l0,0.3l-0.3,0.3
	h-0.2l-0.1,0.3l0,0.4l0.2,0.1l0.1,0.1l-0.1,0.1l0,0.2l0.2,0.1l0.3-0.1l0.1,0.6L32.9,18h-0.1l-0.2-0.1l-0.3,0.1l-0.2,0.1l0,0l0.1,0.1
	h0.1l0.2,0.2l0.3,0.1l0.2-0.1l0-0.2l0.1,0l0.2,0.1l0.1,0.2l-0.1,0.1l-0.2,0.1l0,0.1L33.2,19l0.1,0.2l0.2,0l0.2,0.1l0.2-0.1l0.2,0
	h0.1l0,0.1h0.1l0-0.3l0.1-0.1l0.1,0l0.1-0.1l0-0.1l-0.2-0.1l-0.1-0.3l0.1,0h0.2l0.2,0.2l0.2,0l0-0.1l0-0.3l0.1-0.2l0,0.1h0.2
	l0.1-0.2l0-0.2l0.1-0.1l0.1,0.1l0.1-0.1l0.1,0l0,0.1L36,17.7l0.2,0.1l0.2,0l0-0.2l0.1-0.2l0-0.2l0.2-0.2l0.2,0v-0.1l0-0.3l0.3-0.1
	l0-0.2l0-0.2L37,16.2l-0.1,0l0,0.2h-0.1l0-0.2l-0.1-0.1l-0.3,0.1L36,16.1l0.2-0.1l0.1-0.1l0.2,0l0.1-0.1v-0.1l-0.1-0.1l-0.1-0.2
	l0.1-0.2h0.2l0.1-0.1L36.6,15l-0.1-0.2h0.1l0.1-0.1l0.2-0.1l0.1-0.1L37,14.4h-0.1l-0.3,0.1v-0.2l-0.1-0.1l0.1-0.2l0.1-0.1l0.2,0
	l0-0.2l0.2-0.1L37.3,13.5z"/>
	<path id="path3884_1_" class="cls-1" d="M37.2,16.1L37,16.2l-0.1,0l0,0.2h-0.1l0-0.2l-0.1-0.1l-0.3,0.1L36,16.1l0.2-0.1l0.1-0.1l0.2,0
	l0.1-0.1v-0.1l-0.1-0.1l-0.1-0.2l0.1-0.2h0.2l0.1-0.1L36.6,15l-0.1-0.2h0.1l0.1-0.1l0.2-0.1l0.1-0.1L37,14.4h-0.1l-0.3,0.1v-0.2
	l-0.1-0.1l0.1-0.2l0.1-0.1l0.2,0l0-0.2l0.2-0.1l0.2,0l0.2,0.1l0.2-0.1l0.1,0.1l0.2-0.2h0.2l0.2-0.3l0-0.3l0.1-0.1l-0.1-0.2l0.1-0.1
	l0.2,0.1l0.2-0.1l0.1-0.3l0.1,0l0.1,0.1l0.4,0.3l0,0.2l-0.1,0.1l0.2,0.2l0.3,0.1v0.2l0.1,0.1l0,0.2l-0.1,0.1l0,0.2l0.1,0.2l0,0.1
	l-0.1,0.1l0,0.2l0.1,0.1l-0.1,0.1l0,0.1l-0.3,0.3l-0.1,0.2l-0.1-0.2l-0.3,0l-0.3,0L38,15.3l-0.2,0.1l-0.3,0.1l-0.2,0.4L37.2,16.1
	L37.2,16.1z"/>
	<path id="path3898_1_" class="cls-1" d="M33,22.7l0.3,0l0-0.2l0.4-0.4l0.2,0l0.1-0.1l0.2,0.3l0.1,0.2l0.5,0l0.4-0.3l0.1,0l0.1,0.1
	l0.4,0l0.3,0.3l0.2-0.1l0.1,0.1l0,0.2l0,0.3l0.4,0.1l0,0.1L37,23h0.5l0.2-0.2h0.1l0,0.3l0.2,0.1l0.2,0.2l0.7,0l0.5,0.2l0.2-0.2
	l0-0.1l0.4,0l0.3,0.2l0.4,0.1l-0.1,0.4l0.2,0.1v0.1l0.1,0v0.1l-0.2,0.2l0,0.1l0.1,0.1v0.1l0.2,0.3l0,0.1l-0.2,0.1L40,25.7L39.9,26
	l-0.2,0l-0.1-0.1L39.3,26h-0.2l-0.2-0.2l-0.1-0.3h-0.2l-0.1-0.1l-0.2,0.1l-0.1,0.1l-0.2,0l-0.1-0.3l-0.2,0l-0.4-0.1l-0.3,0.2l0,0.2
	l0.2,0.1L37,25.8h-0.2L36.7,26h-0.4l-0.5-0.1l-0.7-0.4L35,25.3l-0.1,0l-0.3,0.1l-0.1,0.1h-0.1l-0.3-0.2l-0.4-0.2l-0.4,0l0-0.1
	l0.1-0.1l0-0.1l-0.3-0.1l-0.1,0l-0.1,0l0.1-0.1l0.1,0l0.1-0.2l0.1-0.4l0-0.2v-0.2l-0.1-0.1l-0.1,0.1l-0.1,0l-0.1-0.2h-0.2l-0.1-0.1
	h-0.1l-0.2,0.2h-0.1l-0.1-0.2h-0.4l-0.1-0.1l-0.2,0l0-0.1l0.2-0.1l0.3-0.2l0.5,0.1l0.4-0.1L33,22.7z"/>
	<path id="path2850_1_" class="cls-1" d="M59.4,52.4l0.1-0.3l-0.2-0.1L59,52L58.5,52l-0.3-0.3l0.1-0.3l0.3-0.2h0.1l0.1,0.1l0.2,0
	l0.2-0.1l0.2-0.1l0,0v0.1l0.2,0l0.3-0.3l0.5-0.5l0.2-0.1l0.1-0.3l0.2-0.3l0.1-0.1l0-0.2l0.1-0.2l0.2-0.1v-0.5l-0.4,0.2l-0.2-0.2
	l0-0.3l-0.1-0.1l-0.2,0.1l-0.3,0.2l-0.3,0l-0.2-0.1l-0.1,0.1l-0.5,0l-0.3,0.1l-0.3,0.3h-0.3l-0.2,0.1L58,49.1l-0.2,0.1L57.3,49
	l-0.5,0l-0.2-0.1h-0.1L56.4,49l-0.1,0l-0.1-0.1l-0.3,0l-0.1,0L55.6,49l0.1,0.2l0.1,0.1l0.1,0.1l0.3,0.2l0.1,0l0.1,0.2l0,0.3l0.1,0.1
	v0.1l-0.1,0.1l0,0.1l-0.1,0.2l0.1,0.1l-0.1,0.1v0.1l-0.1,0.1l0.2,0l0.1,0l0.1-0.1l0.2,0.2l-0.2,0l0,0.1l-0.1,0.2l-0.1,0l0,0.1l0.2,0
	l0,0.1l0.2,0l0.1-0.1l0.1,0.2l1.1,0.8l0.4,0l0.3-0.1l0.2,0L59.4,52.4L59.4,52.4z"/>
	<path id="path2807-5_1_" class="cls-1" d="M56.2,48.9L56,48.6l-0.1,0l0-0.1l-0.2-0.2v-0.2l-0.1,0l-0.1-0.2l-0.4-0.2H55l-0.1-0.2
	l-0.1,0l0,0.1l-0.3,0l-0.2-0.2l0-0.1h0.2l0.1,0h0.2l0.1-0.2V47l0.2,0v-0.1h0.2l0,0.2l-0.1,0.3l0.2,0.1l0.2-0.1l0.1,0.1l0,0.1l0,0.2
	l0.4,0l0.1,0.1l0.2,0l0-0.1l0.4,0v-0.2l0.3-0.2l0-0.1h0.1l0.1-0.1l0-0.3l0.1-0.2l0.1,0l0-0.5l0.1-0.1l0.1,0l0.2-0.2l0-0.1l0.1-0.1
	l-0.2-0.1l-0.1,0l0,0.1l0,0.1h-0.3v-0.1l-0.1-0.1h-0.2l-0.1-0.1l0.1-0.2l-0.1,0l0,0h-0.2l-0.2,0.1h-0.6l0-0.1l0.1-0.1h-0.2L55,45
	h-0.5l-0.3,0.1l-0.1-0.1l0-0.4l-0.1,0l-0.2,0.1l-0.2-0.2l0-0.2h-0.2l-0.1-0.1l-0.2,0l-0.1,0l-0.1,0l0-0.1h-0.1l-0.1-0.1l0.1-0.1
	l-0.1-0.1l0-0.2l-0.1-0.2l-0.1,0V43l-0.2-0.2l-0.2,0.1l-0.1-0.2l-0.1,0l-0.1,0l-0.2,0.1v0.1L51.1,43l0.2,0.1l-0.1,0.2v0.2l-0.2,0
	l-0.2-0.2h-0.1l-0.1,0.1l0.2,0.1l0,0.2l-0.2,0l-0.2-0.1h-0.1l0-0.1l-0.2,0L50,43.3h-0.1l-0.1,0.1l-0.1-0.1l-0.2,0l-0.1,0.1l-0.2-0.2
	l-0.2,0l-0.1,0.1l0.1,0l0.2,0.2l-0.3,0l-0.1,0.1l0.2,0.2l0.2,0.4l0.2,0l0.9,0.1l0.2,0.2L50.4,45l0.1,0.4l0.9,0.5l0.2,0.2v0.3h0.1
	l0.2,0.2l0,0.1l0,0.3l0.2,0.1l0,0.2l-0.2,0.2v0.2l0.3,0.3l0,0.4l0.3,0l0.1,0.2l0.4,0.1l0.1,0l0.1,0.2l0,0.2l-0.1,0v0.1l0.1,0.2
	l-0.1,0.2l0.1,0.1l0.1,0.2l0.2,0.1h0.2l0.1,0.1l0,0.1l0.1,0.2l0.3,0.1l0.1,0.1v0.2l-0.2,0.2v0.2l-0.2,0.1l0.1,0.2l0.1,0.1l0.1,0.2
	l0.3,0.1l0,0.2l-0.2,0.1l0,0.1l0.1,0.1v0.1l-0.1,0.1l0,0.2l0.1-0.1l0.1,0l0.1,0l0,0.2h0.2l0,0.1l0.3-0.1l3-0.1L57,51.7l-0.1-0.2
	l-0.1,0.1l-0.2,0l0-0.1l-0.2,0l0-0.1l0.1,0l0.1-0.2l0-0.1l0.2,0l-0.2-0.2l-0.1,0.1l-0.1,0l-0.2,0l0.1-0.1v-0.1l0.1-0.1l-0.1-0.1
	l0.1-0.2l0-0.1l0.1-0.1V50L56.3,50l0-0.3l-0.1-0.2l-0.1,0l-0.3-0.2l-0.1-0.1l-0.1-0.1L55.6,49l0.2-0.2l0.1,0L56.2,48.9z"/>
	<path id="path2821_1_" class="cls-1" d="M56.4,64.6L56.4,64.6l0.2-0.1l0.2,0l0.1,0.1l0.2,0l0.1-0.1l0-0.1l0-0.3l0-0.1l0-0.1l0.2,0
	l0.1-0.1l0.1-0.2l0.1-0.2l0.1-0.2l0.4-0.2l0.2-0.2l0.2,0l0-0.1l-0.1-0.1v-0.1l0.1-0.1h0.1l0.2-0.2l0-0.2l0.1-0.2l0.1-0.1l0.1,0
	l0.1-0.1l0.1-0.2l0-0.1l0.1-0.2l0.1,0l0.4-0.3l0.1-0.2l0.1,0l0.2,0l0.3,0l0.2-0.1h0.1l0-0.1l0.2-0.1l0.8-0.3L62,60l0-0.1l0.2-0.2
	c0,0,0.2,0,0.3,0c0,0,0.2-0.1,0.2-0.1l0.3,0l0.2,0l0.4-0.2h0.2l0-0.1l0.1-0.1l0.2,0l0.3,0l0.2-0.1l0,0.1l-0.1,0.1l0,0.1l0.1,0
	l0.1-0.1l0-0.1l0.1,0l0,0.1l0.2,0l0.1,0.1l0.1-0.1l0.1,0v-0.3l0.1,0l0.2,0l0.1-0.1l0-0.1l0.1-0.2l0.1,0l0.2,0h0.1l0.2-0.1l0-0.2
	l-0.1-0.1l0-0.2L66.4,58l-0.1-0.4l0-0.1l0-0.2l0-0.2l-0.3,0L66,57.1l-0.2,0L65.4,57l-0.1-0.1L65,56.8l-0.1-0.1l-0.1,0.1v0.1l-0.1,0
	l-0.1,0l-0.1-0.1l0-0.1l-0.2,0.1l0,0.2l-0.2,0L64,57.1l-0.3,0.2l-0.1,0.1l0,0.2l-0.2,0l0,0l0.1,0.1l0,0.1l0,0.1l0,0.1l-0.1-0.1
	l-0.1,0h-0.1l-0.2,0.1l-0.2-0.1l-0.1,0l0,0.1l-0.1,0l0,0l-0.1,0l0,0.1l-0.1,0l-0.2,0l0,0l-0.1,0.1l0,0.1h-0.1l0.2,0.1L62,58.4
	l-0.1,0l-0.1-0.1l-0.1,0l-0.1,0h-0.1l-0.1,0v0.1l-0.1,0.1l-0.2,0.2l-0.2,0l0-0.1l-0.2-0.1l0-0.1l-0.2,0.1l-0.1,0.1h-0.2l-0.1,0
	L59.9,59l-0.1,0c0,0-0.1,0.1-0.1,0.1c0,0,0,0.1,0,0.1l-0.1,0l-0.1,0.1l-0.1,0.1l-0.8,0.8L58,60.5l-0.3,0.2l-0.5,0.4l0,0L57,61.2
	l-0.2,0.4L56.4,62l-0.3,0.3l-0.3,0.3l0,0l-0.1,0.1l-0.1,0.3l-0.2,0.2l-0.1,0.2l-0.2,0.2l0,0.1l0.1,0.2l0,0.5l0.1,0.1l0.1,0.1l0.2,0
	l0.2-0.1l0.4,0L56.4,64.6L56.4,64.6z"/>
	<path id="path2868_1_" class="cls-1" d="M58.1,52.5l0.4,0l0.3-0.1l0.2,0l0.4,0l0.1,0l0.4,0l0.2,0.1l0,0.1l0.1,0.2l0,0.2L60,53.2l0,0.2
	l-0.1,0l-0.1,0.2v0.2l0,0l-0.1-0.1l-0.1,0v0l-0.1,0.1l0.1,0v0.1l0,0.1l0,0l0.1,0l0,0.2l-0.1,0.1l0,0.1l0,0l-0.1,0l-0.1,0l0,0.2
	l0.1,0.1l0,0.3l-0.1,0.2l0.1,0.1l-0.1,0.2l0.1,0.1v0.1l0.1,0l0,0.1l-0.1,0.1l0,0.1L59.4,56h-0.2l-0.1,0.1l-0.1,0.1h-0.2l0,0.2
	l-0.1,0.1l-0.2,0l-0.1,0.1l0,0.1l0,0.1l-0.1,0.1h0l-0.1,0.2l-0.2,0l-0.2,0.2l-0.2,0.1l0,0.1h-0.1l-0.3,0.3l0,0.3l0.1,0.2l0.1-0.1
	l0.1,0l0,0.1l-0.2,0.4l0,0.4l-0.1,0.1l-0.1,0.2l-0.3,0.2l-0.4,0.4l-0.5,0.6L55.5,61L55.4,61l-0.1,0l-0.2,0.1l-0.2,0.3l0,0.1l0,0.1
	l-0.1,0.1l-0.1-0.2l0-0.2L54.5,61l-0.2-0.1l-0.2-0.2l-0.2,0l-0.4,0.1l-0.2-0.2l-0.1-0.2l-0.2-0.1L52.8,60l0.1-0.2l0-0.1l-0.1-0.1
	l-0.2-0.3l-0.2-0.5l0-0.5l0-0.2L52.4,58l-0.1-0.1l0.1-0.2l0.4,0l0.2,0l0.1-0.3l0-0.3l0.1,0l0.2,0.1l0.1,0l0.1-0.1l0,0.1l0,0.1
	l0.2,0.1l0.1-0.1l0.3-0.1L54.2,57l0.1-0.2l0,0l0.2-0.1l0.1-0.1h0.1l-0.1-0.2l-0.1-0.1l0-0.1l-0.3,0l-0.1-0.1l-0.3-0.2l0-0.1
	l-0.1-0.1l0.2,0l0.1-0.1v-0.1l0.1,0l0.1-0.1l0.1,0v0.2l0.2,0.1l0-0.1l0-0.1l0.2,0l0-0.1l0.1,0l0-0.2l0.1,0.1l0.1,0l0-0.2l0.2-0.2
	L55,54.9l0-0.5h0.1l0.1-0.2l0.3-0.1l0-0.2l-0.3-0.2l-0.2-0.1L55,53.4l-0.2,0l-0.1,0.1l-0.1-0.1l0.1-0.2L54.5,53l-0.1,0l-0.1-0.2
	l0.1-0.2l0.1-0.1l0.1,0l0.1,0l0,0.2h0.2l0,0.1l0.3-0.1L58.1,52.5L58.1,52.5z"/>
	<path id="path2859_1_" class="cls-1" d="M57.1,59.3L57.1,59.3l0.1,0.2l0.2,0l0.1,0.1l0.1-0.1l0.1,0l0.1-0.1l0.1,0l0.2,0l0.2-0.1h0.1
	l0.1,0.1l0.1,0.1l0.1-0.1l0.1,0l0.1-0.2l-0.1-0.1l0.1-0.1l0.1-0.1H59l0.1-0.2l0.1,0l0.1-0.1l0-0.1l0.2,0l0.2-0.4l0-0.1l0.1,0L60,58
	l0.2-0.1l0.2,0l0.1-0.2l0,0.1l0.2-0.2l-0.1,0l0-0.1l-0.1-0.1l0.1,0l0.1,0.1l0.2,0.1l0,0l0-0.1h0.1v-0.1l0.1-0.1l0.1,0.1v0.1l0.1,0
	l0.1,0l0,0.1l-0.1,0.1l0,0.1L61.3,58l0.1,0l0.2-0.3l0.2-0.3l0-0.4l0.2-0.1l0-0.1l0.1,0l0-0.2l0.1,0l0.2-0.1l0.2-0.2l0-0.1l0.2,0
	l0.1-0.1l0.1-0.2l0.3-0.3l0.2-0.1h0.1l0.2-0.3l0-0.1h-0.1l-0.1-0.1L63.6,55l0.1,0l0-0.1h0.2l0.2-0.2l-0.4-0.1l-0.1-0.2l-0.2,0l0-0.2
	v-0.2l0.1-0.1l-0.3,0l-0.1-0.1l-0.1,0L62.8,54l-0.1-0.2l-0.1,0l-0.1-0.1l-1.1-0.1l-0.1,0.1v0.1l-0.1,0l-0.1-0.1l-0.1,0l-0.1-0.1
	h-0.2l-0.1-0.1l-0.4,0L60,53.7l-0.2,0.1l-0.1,0l-0.1-0.1l-0.1,0v0l-0.1,0.1l0.1,0v0.1l0,0.1l0,0l0.1,0l0,0.2l-0.1,0.1l0,0.1l0,0
	l-0.1,0l-0.1,0l0,0.2l0.1,0.1l0,0.3l-0.1,0.2l0.1,0.1l-0.1,0.2l0.1,0.1v0.1l0.1,0l0,0.1l-0.1,0.1l0,0.1L59.4,56h-0.2l-0.1,0.1
	l-0.1,0.1h-0.2l0,0.2l-0.1,0.1l-0.2,0l-0.1,0.1l0,0.1l0,0.1l-0.1,0.1h0l-0.1,0.2l-0.2,0l-0.2,0.2l-0.2,0.1l0,0.1h-0.1l-0.3,0.3
	l0,0.3l0.1,0.2l0.1-0.1l0.1,0l0,0.1l-0.2,0.4l0,0.4l-0.1,0.1L57.1,59.3L57.1,59.3z"/>
	<path id="path5105_1_" class="cls-1" d="M54.6,81.1l-0.4,0v0l-0.1,0l0,0.1l-0.1,0l0,0.2l-0.1,0l0-0.1h-0.2l-0.3,0.1l-0.2,0.8v0.2
	l0.1,0.2l0,0.1l-0.1,0l0,0.2l-0.2,0.4l0,0l-0.1-0.1h-0.2l-0.2,0.1l-0.1,0.4L52.3,84l-0.7,0.2l0,0h-0.1l-0.1-0.1h-0.1L51,83.7l0-0.3
	l-0.2-0.3L50.4,83L50,82.6l-0.2-0.1l0-0.3L49.6,82l-0.1,0l0.1-0.2l0-0.1l-0.1-0.2h0.1l0-0.1l0.2-0.1l0-0.1l0-0.1l0.1,0.1l0.1,0
	l0-0.2l0-0.2l0.1,0l0-0.1l0.1,0.1l0.1,0.1l0,0.1l0,0.2l0.1-0.1l0-0.2l-0.1-0.1l0-0.1l0.1-0.1l0.1,0.1l0,0.1l0.1,0.2l0.1,0l0-0.1
	l0.1,0l0.1,0.1v0.1l0.1,0.1h0.1l0-0.1l0.1,0l0-0.5l0-0.3v-0.2l-0.1-0.1l0-0.1l-0.1-0.1l0-0.1h0.2l0-0.1l0.3-0.1l0.2,0l0-0.2l0.1-0.2
	l-0.1-0.2l0-0.1h0.1l0.1-0.2l-0.1-0.3l-0.1-0.3l-0.1,0l0-0.1h0.1l0.2-0.2v-0.2l0.1,0l0-0.1l0-0.2L52,76.9l0.1-0.3l0.1-0.1l-0.1-0.2
	l0.1,0l0.1,0l0.1,0l0-0.2l0.2-0.1l-0.2,0l-0.1-0.3l-0.1-0.1l0.2-0.3l0.1-0.5l0-0.6l0.1-0.3l0-0.4l0.1-0.2l0.2-0.1l0.3,0l0.2-0.1
	l0.1,0.1l0.5,0.2l0.1,0.1l0.2,0.1l0.2-0.1v-0.2l0.3-0.3l0.1-0.4l0.1-0.1v-0.2l-0.2-0.1h-0.1l0.1-0.1l0.1-0.2l0.4-0.4l0.1,0l0.2-0.2
	l0-0.1l-0.1,0l-0.3-0.3v-0.2l0.2-0.1l0-0.2l0.1,0l0.2-0.2l0.1-0.1l0.2,0V70l0.2-0.1l0.1,0.1H56l0.2,0.2l0.1,0.1l0.2,0.1l0.2-0.1
	l0.1-0.1l0.1,0l0.2,0l0-0.3l-0.1-0.1l0.1-0.1l0-0.7L57,68.6l-0.1-0.2l0-0.1l-0.2-0.1l-0.1-0.2l0-0.1l-0.2-0.3l-0.1-0.1l0-0.1
	l0.1-0.1v-0.1l0.2-0.1l0.2-0.2l0-0.1l-0.1-0.1v-0.1l0.2-0.1l0-0.1l0.1-0.1l0-0.2l-0.1-0.2l0.1-0.2l0.4,0l0.3,0h1l0.1,0l0.2-0.1
	l0.3,0l0.6-0.4l0.4-0.1l0.2-0.1l0.1-0.1h0.1l0.1-0.1l0.3-0.3l0.2,0l0-0.1l0.1,0h0.1l0,0.1h0.1l0.1-0.1l0.2,0l0.1,0.1l0.2,0l0.2-0.1
	l0.2-0.2l0.2-0.1l0.1,0.2l-0.1,0.1l-0.1,0.3l-0.1,0.1l0.1,0.2l0.2,0l0,0.1l-0.1,0.1h-0.1v0.1l0.1,0.1l0,0.2l-0.1,0l0,0.1L62.2,66
	l0,0.2l0.1,0.1v0.1l0,0.1h0.3l0.1,0.2l0.2,0.1l0.2,0l0.1,0l0.2,0l0,0.2l-0.1,0.2l0.2,0l0.1,0l0.1,0.1l0,0.2h0.1l0.1,0.2l-0.1,0.1
	l0,0.1l-0.2,0l-0.1,0l-0.1,0.5l0.1,0.2l0,0.3l0.1,0.1l0.1,0.5l-0.2,0.2l0,0.4l-0.2,0.2v0.4l-0.2,0.1L63,70.9l0,0.1l0,0.1l-0.1,0.1
	l-0.2,0l-0.2,0.1l-0.1,0l0,0.2l0.1,0.1l0,0.2l-0.1,0.1l-0.1,0L62,72.3l-0.1,0.2l-0.1,0.1l-0.1,0l-0.1,0.1l-0.2,0l-0.1,0l0,0.1L61,73
	L60.7,73l-0.2,0l-0.1,0.1v0.3l0,0.1l0,0.2l-0.2,0.2l0.1,0.1l-0.3,0.1l-0.1,0l-0.1,0.1l0,0.1l-0.2,0.1l-0.2,0.2l-0.1,0.2l0.1-0.1
	l0.1,0l0.3,0.1l0.1-0.1l0.5-0.1l0.1,0.2L60.1,75v0.2L60,75.4l-0.2,0l-0.1,0.1l-0.2,0.1h-0.6l0,0.1l-0.4,0.1l-0.2,0l-0.1,0.1l0,0.1
	l-0.2,0.4l-0.1,0l-0.1,0.4l-0.1,0v0.3l0.2,0.2l0,0.1l-0.1,0l-0.1,0.2h-0.1l0.1,0.2l0.1,0v0.3l0.1,0.2l0,0.1h0.2l0.3-0.2l0.4-0.2
	l0.4,0l0,0.1l0.2,0l0.2,0.2l0.1,0.2l-0.1,0.1l0,0.2l-0.1,0L59.4,79l0,0.1l-0.1,0l-0.2,0.1l-0.1,0.1l-0.3,0l-0.1,0l-0.1,0.2l0,0.2
	l0,0l-0.2,0.3l-0.1,0l-0.1,0L58,80.1l-0.4,0.3l-0.2,0.1l-0.1,0.1l0,0.1l-0.2,0.2l-0.7,0.5h-0.1l-0.1,0.2l-0.1,0.1L56,81.4l-0.2,0
	l-0.3-0.2l-0.4,0l-0.3-0.1L54.6,81.1z"/>
	<path id="path5086_1_" class="cls-1" d="M48.1,67.4l0-0.1L48,67l-0.4,0l-0.2,0.1l-0.2-0.2l-0.2,0l0-0.3l-0.5-0.4l-0.2,0l-0.2-0.2
	L45.9,66l-0.1,0l0-0.1l-0.1-0.1l-0.1-0.3l-0.4,0l0.1-0.2l0.1-0.2l-0.1,0L45,65.3l-0.2-0.1l-0.1,0.1l-0.2,0l-0.2,0.1l-0.2-0.1l0-0.3
	l0-0.1l-0.1-0.1l0-0.1l-0.2-0.1l-0.2-0.2l-0.1-0.4l-0.1-0.1l-0.1-0.2l0-0.1l-0.2,0L43,63.3l0-0.3l0.2-0.2l0.1,0l0.1,0.1l0.1-0.1
	l0.1,0l0-0.1l0.1-0.1l0.1,0l0.3-0.1l0-0.2h0.1l0-0.2L44,61.9l0-0.1l0,0l0,0l-0.1-0.1l0-0.1l0.1,0l0,0l0.1,0l0,0l0.1,0l0,0l0.1,0l0,0
	l0.1,0l0-0.1l0.4-0.2l0-0.2l0.2-0.2l0-0.1l0.1,0l0.1,0.1l0.1,0.1l0,0.1l0.3,0.2l0.1,0l0,0l0,0l-0.1,0l0-0.1l0.1,0h0.2l0.1,0.1l0.2,0
	l0-0.1l0.1,0l0,0l0.2,0l0.2-0.1h0.3l0.2,0.1l0.1,0.3l0.1,0l0-0.1h0.1l0.1-0.1l0-0.5l0.1-0.3l0.1,0l0.3-0.2l0.2-0.2l0.3-0.5l0.1-0.7
	L48.4,59l0-0.1l0.1-0.1l0-0.2l0.1-0.1h0v0.1l0.1,0.1l0,0.2l0.1,0l0.5,0l0.3-0.1l0,0l-0.1,0l0-0.1l0,0l0-0.2l0.2-0.3l0,0l0.1-0.1
	l0.2,0.1l0.1,0.1l0.2,0l0,0.1l0,0.1l0.1,0.1l-0.1,0.1l-0.1-0.1l-0.1,0v0.2l-0.1,0.1v0.2l0.2,0.2l0.2,0.4l0,0.3l-0.1,0.2l0,0.2
	l0.1,0.2l0.1,0l0.1,0.1v0.1l0.1,0l0.1,0.3l0.1,0.2L51,61.5l-0.2,0l-0.2,0.2L50.6,62l0,0.1l-0.2,0.1l-0.2,0L49.9,62l-0.2,0l-0.4,0.2
	l0,0.1l-0.4,0.1l-0.1,0l-0.3,0.2l-0.1,0L48,62.6l0,0.2l-0.1,0.1l0,0.2L47.7,63l-0.2-0.2l-0.2,0.1l-0.2,0.2l-0.1,0.2l-0.2,0.2
	l-0.1,0.1h-0.1l0.1,0.3l0.1,0.1v0.3l0.1,0.3l0.1,0l0.1,0.3l0.2,0.1l0.1,0.2l-0.1,0.2l0.3,0l0.1,0.2l0,0.1l0.1,0l0.1,0.3l0.1,0.2
	l0.2,0l0,0.1l0,0.2l0.1,0.2v0.6l-0.1,0.1L48.1,67.4z"/>
	<path id="path5100_1_" class="cls-1" d="M50.1,57.9l0.1-0.4l0-0.2l0.1-0.2l0.1,0l0-0.1l-0.1,0l-0.1-0.2L50,56.5l0-0.4l0-0.1l-0.1,0
	l0,0.1l-0.2,0l0,0l-0.1,0L49.5,56v-0.1l0-0.2l-0.1-0.1l0-0.2l-0.1,0l0-0.1l0.1-0.1V55l0,0l0-0.1l-0.1-0.1v-0.1l0,0l0-0.1l0.1,0
	l0-0.1l0,0v-0.1l-0.2-0.2l-0.2,0L48.8,54l0,0l0-0.1l0.1,0l0.1-0.3l0-0.3h0l0-0.1l-0.1-0.1l-0.1-0.4l-0.1-0.1v-0.1l0,0l0.1-0.2h0l0,0
	l-0.1-0.2l0-0.3l0.1,0l0-0.1l-0.2-0.2l0-0.1l-0.1-0.3l-0.2-0.2l0-0.1l0.1,0l0.1-0.1l0-0.3l-0.2-0.1l0-0.2l0,0l0.1-0.1l0.3,0l0.1,0
	l0.1-0.1l0,0v-0.1l0-0.1l0,0.1h0l0.1-0.1l0.1-0.1l0-0.1l-0.1-0.1l0-0.1l0-0.1l0.2,0l0-0.1h0.1l0.1-0.1l0.1,0l0.1-0.1l0.3,0l0.1-0.1
	l0-0.1v-0.1l-0.2-0.1h-0.1l-0.2-0.1l0.1,0l0.2,0l0.2,0.1l0.2-0.2l0.3,0.1l0.7,0l0.4,0.1l0.1-0.1l0.3,0l0.3,0l0.1,0.2l0.4,0.1l0.1,0
	l0.1,0.2l0,0.2l-0.1,0v0.1l0.1,0.2l-0.1,0.2l0.1,0.1l0.1,0.2l0.2,0.1h0.2l0.1,0.1l0,0.1l0.1,0.2l0.3,0.1l0.1,0.1v0.2l-0.2,0.2v0.2
	l-0.2,0.1l0.1,0.2l0.1,0.1l0.1,0.2l0.3,0.1l0,0.2l-0.2,0.1l0,0.1l0.1,0.1v0.1l-0.1,0.1l0,0.2l-0.1,0.2l0.1,0.2l0.1,0l0.1,0.2
	l-0.1,0.2l0.1,0.1l0.1-0.1l0.2,0l0.1,0.2l0.2,0.1l0.3,0.2l0,0.2l-0.3,0.1l-0.1,0.2H55l0,0.5l0.1,0.2l-0.2,0.2l0,0.2l-0.1,0l-0.1-0.1
	l0,0.2l-0.1,0l0,0.1l-0.2,0l0,0.1l0,0.1l-0.2-0.1v-0.2l-0.1,0l-0.1,0.1l-0.1,0v0.1l-0.1,0.1l-0.2,0l0.1,0.1l0,0.1l0.3,0.2l0.1,0.1
	l0.3,0l0,0.1l0.1,0.1l0.1,0.2h-0.1l-0.1,0.1l-0.2,0.1l0,0L54.2,57l0.1,0.2L54,57.2l-0.1,0.1l-0.2-0.1l0-0.1l0-0.1l-0.1,0.1l-0.1,0
	L53.3,57l-0.1,0l0,0.3L53,57.7l-0.2,0l-0.4,0l-0.1,0.2l0.1,0.1l-0.1,0l-0.1,0.1L52,58.3l0,0.1l-0.2,0h-0.1l-0.1,0l-0.3,0l-0.2,0
	l-0.1,0l-0.1,0.1l0,0.2l0.1,0.1v0.2l-0.1,0.2l-0.1,0.3l0,0l-0.2-0.4l-0.2-0.2v-0.2l0.1-0.1v-0.2l0.1,0l0.1,0.1l0.1-0.1l-0.1-0.1
	l0-0.1l0-0.1l-0.2,0l-0.1-0.1L50,58.1L50.1,57.9z"/>
	<path id="path5080_1_" class="cls-1" d="M38.8,31.3l-0.4,0l-0.2-0.2l-0.3-0.1l-0.2,0.2l-0.2,0l-0.2,0l-0.2,0l-0.2-0.2l0-0.1l-0.3-0.3
	l-0.1-0.2l-0.3-0.1l-0.1-0.3h-0.2l-0.1-0.1l0.1-0.3l-0.1-0.1l-0.5,0l-0.1-0.2l0-0.1l-0.2-0.1l-0.2,0.1l-0.2,0.1l-0.1-0.2l0.1-0.2
	l-0.2-0.2l0-0.1l0.1,0l0.4-0.3l0-0.1l-0.1-0.1l-0.1,0.1l-0.2,0.1l-0.2-0.1l-0.4-0.1l-0.1,0l-0.1,0.1l-0.2-0.2l-0.2,0l-0.1,0.1
	l-0.2-0.2l-0.3,0l-0.1-0.2l0-0.2l-0.2,0.2l-0.1,0l0.1-0.1l-0.1-0.1l0-0.3l-0.1,0l-0.2,0L32,27.9h-0.1l-0.2,0.2l0,0.3l-0.4,0.2
	l-0.2,0.6L31,29.3l-0.2-0.1l0-0.2l-0.3-0.2l-0.2-0.3h-0.1l-0.1,0.3l-0.1,0.2l-0.2,0l0-0.4l-0.1-0.4l0-0.1l0-0.3l0.2-0.3l0.1,0
	l-0.1-0.2l0.1-0.1l-0.1-0.4v-0.1l0.4-0.3l0-0.4l0.2-0.3l0-0.2l0.2-0.3l0-0.2l-0.3,0l-0.1-0.2l0.2-0.1l0-0.2l0.1-0.3l0.2-0.2
	l-0.1-0.1l0.1-0.3l0.2-0.1l0-0.2l0.1-0.1l0,0.1l0.2,0l0.1,0.1h0.4l0.1,0.2h0.1l0.2-0.2h0.1l0.1,0.1h0.2l0.1,0.2l0.1,0l0.1-0.1
	l0.1,0.1v0.2l0,0.2l-0.1,0.4l-0.1,0.2l-0.1,0l-0.1,0.1l0.1,0l0.1,0l0.3,0.1l0,0.1l-0.1,0.1l0,0.1l0.4,0l0.4,0.2l0.3,0.2h0.1l0.1-0.1
	l0.3-0.1l0.1,0l0.1,0.2l0.7,0.4l0.5,0.1h0.4l0.1-0.1H37l0.1-0.1l-0.2-0.1l0-0.2l0.3-0.2l0.4,0.1l0.2,0l0.1,0.3l0.2,0l0.1-0.1
	l0.2-0.1l0.1,0.1h0.2l0.1,0.3l0.2,0.2h0.2l0.2-0.1l0.1,0.1l0.2,0l-0.1,0.2v0.3l-0.2,0.1l0,0.2l0.1,0.1V27l0.2,0.1v0.5l-0.1,0.2
	l0.1,0.1l-0.1,0h-0.1l-0.1,0.2l0,0.2l0.1,0l0.1,0.2l-0.1,0.2v0.1l0.2,0.1l0,0.1l0.1,0v0.1l-0.1,0l-0.2,0.3h-0.1v0.1l-0.1,0.1l0,0.1
	l0,0.2l-0.1,0l0,0.1l-0.1,0l0,0.2l-0.2,0l0.1,0.1l0.1,0l0.1,0.2L39.2,31l-0.1,0L39,31l0,0.2l-0.1,0l-0.1,0.3l-0.1,0L38.8,31.3z"/>
	<path id="path5099_1_" class="cls-1" d="M27.4,19.3l-0.1,0.4l0,0.2l0.1,0.3v0.2l0.1,0.2l0.1,0.1l0.1,0.3l-0.1,0.1l-0.1,0.3l-0.1,0.1
	l-0.1,0.2l0.1,0.2l-0.1,0.3l0,0.2l0.2-0.2l0.2,0l-0.1,0.2l0.1,0.1l0.3,0.1l0.1,0l0.3,0.1l0.2,0.2l0.2,0.1l0.4-0.1l0.3,0.1l0.4,0.2
	l0.2,0l0.1-0.2l-0.1-0.3l0.1,0l0.1,0.1l0.4,0.2l0.4,0.1l0.1-0.1l0.2-0.1l0.3-0.2l0.5,0.1l0.4-0.1l0.2-0.1l0.1-0.2l0.1-0.2l-0.1-0.1
	l-0.1,0L32.8,22l0-0.1l0.2-0.2l0.5-0.7l0.1-0.4l0.1-0.1l0-0.3l-0.3-0.2l-0.1-0.3l0.2-0.1l0.1-0.2l-0.2-0.1l-0.2,0L33.2,19l0.2-0.1
	l0-0.1l0.2-0.1l0.1-0.1l-0.1-0.2l-0.2-0.1l-0.1,0l0,0.2l-0.2,0.1l-0.3-0.1l-0.2-0.2h-0.1l-0.1-0.1l0,0l-0.1-0.1l-0.6,0L31.1,18
	l-0.8,0l-0.4,0.1l-0.3,0.2l-0.1-0.1l-0.1,0.2l-0.2,0.1L29.2,19H29l0,0.2v0.2l-0.2,0.1l-0.2,0.1l-0.2-0.1l-0.1,0.1l0.1,0.2l-0.3-0.1
	v-0.3l-0.1-0.1l-0.4,0l0,0L27.4,19.3z"/>
	<path id="path5106_1_" class="cls-1" d="M27.3,19.1l-0.1,0L27,19.1l-0.5,0.3l-0.3-0.1l0-0.2L26.1,19l-0.2,0l0-0.2l0.2-0.6l0.7-1.8
	l0.2-0.1l0.3,0l0.2-0.1l0.2-0.1l0.1,0.1l0.3-0.1l0-0.1l0.2-0.2l0-0.4L28,15.4v-0.2l0.1,0l0.2,0l0.2,0l0.6-0.2l0-0.2l0.1-0.1l0.1,0
	h0.1l0.1-0.3l-0.1-0.1v-0.2l0.1-0.3v-0.1l-0.1-0.1l0-0.3l0.2-0.1l0.2,0l0.2,0l0.1-0.2l0.2-0.1l0.1,0l0.2,0l0.2-0.2l-0.1-0.2l0.1-0.1
	l0.2,0l0.2-0.2l0.2-0.1l0.2,0l0.3,0.1l0.3,0.1l0.3,0.4l0.2,0.5l0.2,0.1l0,0.3L32.8,14l-0.4,0.2h-0.2l0,0.2l0.1,0.3l0.2,0.1l0,0.2
	l0.3,0.1l0,0.3l-0.3,0.3h-0.2l-0.1,0.3l0,0.4l0.2,0.1l0.1,0.1l-0.1,0.1l0,0.2l0.2,0.1l0.3-0.1l0.1,0.6L32.9,18h-0.1l-0.2-0.1
	l-0.3,0.1l-0.2,0.1l0,0l-0.1-0.1l-0.6,0L31.1,18l-0.8,0l-0.4,0.1l-0.3,0.2l-0.1-0.1l-0.1,0.2l-0.2,0.1L29.2,19H29l0,0.2v0.2
	l-0.2,0.1l-0.2,0.1l-0.2-0.1l-0.1,0.1l0.1,0.2l-0.3-0.1v-0.3l-0.1-0.1l-0.4,0L27.3,19.1z"/>
	<path id="path5137_1_" class="cls-1" d="M33.2,7.9l0.1-0.2l0-0.2l0-0.1l0.2-0.1l0.1-0.1V7l0-0.1l0.1,0l0,0l0-0.1l-0.1,0l0,0l0-0.1
	l-0.1-0.2l0-0.2l0-0.4l0.1-0.3l0.1-0.3l0.1-0.3l-0.2-0.2l-0.1-0.2l-0.5-0.4L32.5,4l0-0.2l-0.1-0.4l0.4-0.2l0-0.3l0.1-0.3L33.3,2
	l0.2-0.2l0.1-0.2l0.1-0.1l0-0.1l0-0.1l-0.2-0.1l0-0.1l0.1-0.1l0.1-0.1l0-0.1l0-0.1l-0.1-0.1l-0.2,0l-0.3-0.1l-0.2-0.1l-0.1,0l0,0.1
	l0,0.2c0,0,0.1,0.1,0,0.1l-0.1,0.1l-0.1,0l0,0.2l0,0.2l0,0.3l0,0.3l-0.1,0.1l-0.1,0l0,0.1l-0.1,0l0,0l0,0l0,0.2l-0.1,0.2L32,2.9
	l-0.3,0.2l-0.1,0l0.3,0.3l0,0.2l-0.2,0.2l0.1,0l0,0.4l-0.3,0.3l-0.2,0.4L30.9,5l-0.2,0l-0.2,0.2l0.2,0.1l0.1,0.2l0,0v0l0.2,0L31,5.4
	l0.2,0.2l-0.1,0.2l0,0.2l0.2,0.1h0.2l0.2,0l0,0.3l-0.1,0.2l0.2,0.1l0.4-0.1l0.1-0.1l0.3,0.1v0.1l0.3,0L33,6.7l0.2,0.1V7L33,7.2
	l0,0.2l-0.2,0.1l-0.1-0.1l-0.1,0.1l0.1,0.2l0.1,0.2L33.2,7.9L33.2,7.9z"/>
	<path id="path5130_1_" class="cls-1" d="M33.1,8.1l-0.3,0.2l-0.1,0.1l0,0.1L33,8.5l0.1,0l0.1-0.1l0.2,0l0.2,0l0.1,0l0.1,0.1h0l0-0.1
	l0.1-0.1l0.2,0.1l0.1,0.1l0.2,0l0.2,0.1l0.2,0L35,8.7l0.1,0.2l0,0.1l-0.3,0.2l0.1,0l-0.1,0.1l-0.1,0h-0.3l-0.2,0L34,9.3l-0.1,0.1
	l0,0.2l-0.2,0l-0.2,0.2l-0.2,0.1l-0.3,0l-0.2,0.4l0.1,0.1l-0.1,0.3l-0.3,0.1l-0.1,0.2l0.1,0.1l-0.1,0l-0.2,0.2h-0.1L32,11.3
	l-0.1,0.1l-0.3,0l-0.1-0.2l-0.1-0.1l0-0.2l-0.1-0.1l-0.2-0.1l-0.1-0.1l0-0.2l-0.1-0.1H31l-0.1-0.1h-0.1l-0.1-0.1l0.1-0.1l0.1-0.1
	l0.2,0l0.2,0l0.1-0.2V9.5l0.1-0.1l0.1,0l0.1-0.2l0.1,0l0-0.2l-0.1-0.1l-0.1,0l0-0.2l0.2-0.2l0-0.2L31.6,8l-0.1-0.1l-0.1-0.1
	l-0.1-0.2l-0.1-0.1l0.1-0.1l0.2,0.1l0.3,0l0.1,0.1l0.3,0.1l0.1-0.2l0.3,0.2l0,0.1l0,0.1h0.2l0.1,0.1l0.1,0L33.2,8L33.1,8.1z"/>
	<path id="path5114_1_" class="cls-1" d="M35.8,10.5l-0.1,0.1l-0.2,0.2l0,0.4l-0.2,0.3l0,0.3l0.1,0.3l0,0.3L35,12.8l-0.2,0.1l-0.1,0.1
	l0.1,0.2l-0.3,0l-0.1,0l-0.3,0l-0.1,0.1l0-0.3L34,13l0.1-0.1l-0.1,0l-0.2,0.1l0,0.2l-0.1,0.1l-0.1,0l0-0.1l-0.2,0.1l-0.2,0.2l-0.1,0
	l-0.2-0.1l-0.2-0.5l-0.3-0.4l-0.3-0.1l-0.3-0.1l0.1-0.2v-0.2l0.2-0.2l-0.1-0.2h0.1l0.2-0.2l0.1,0l-0.1-0.1l0.1-0.2l0.3-0.1l0.1-0.3
	l-0.1-0.1L33,9.8l0.3,0l0.2-0.1l0.2-0.2l0.2,0l0-0.2L34,9.3l0.2,0.1l0.2,0l0.3,0l0.1,0l0.1-0.1l0.1,0L35,9.3l0,0.1l0.1,0.1l0,0
	l0,0.2l0.1,0.1l0.1,0.1l0.1,0.1l0.2,0.4L35.8,10.5z"/>
	<path id="path5112_1_" class="cls-1" d="M36.8,10.3l-0.1,0.3l-0.2,0.1h-0.1l-0.1,0.1l0.2,0.1l0.1,0.2l-0.2,0.1v0.2l-0.1,0.1l0,0.3
	l0.1,0.1l0.2-0.2l0.1,0.1l0.3,0.1V12l0.2,0.1l0.1-0.1l0.2,0l0.1,0.1v0.2l-0.2,0.4l-0.3,0.1L36.8,13l-0.1-0.1l-0.1,0.5l-0.3,0.2v0.1
	l-0.2,0.1l-0.2-0.1l-0.1,0l-0.2-0.3l0-0.1l-0.2-0.1l-0.3,0L35,13.2l-0.2,0.1l-0.1-0.2l0.1-0.1l0.2-0.1l0.3-0.5l0-0.3l-0.1-0.3l0-0.3
	l0.2-0.3l0-0.4l0.2-0.2l0.1-0.1l0.5-0.2l0.4-0.1L36.8,10.3z"/>
	<path id="path5119_1_" class="cls-1" d="M37.1,10.1l0.2,0.1l0.2,0.2l0.3,0.4l0.1,0l0.1,0.2L38,11l0.1,0l0.1,0.1l0.1,0l0.1,0l-0.1,0.1
	l-0.3,0.2l0,0.1l-0.2,0.3h-0.2L37.3,12l-0.2,0L37,12.1L36.9,12v-0.2l-0.3-0.1l-0.1-0.1l-0.2,0.2l-0.1-0.1l0-0.3l0.1-0.1v-0.2
	l0.2-0.1l-0.1-0.2l-0.2-0.1l0.1-0.1h0.1l0.2-0.1l0.1-0.3l0-0.2L37.1,10.1z"/>
	<path id="path5125_1_" class="cls-1" d="M38.5,11.3l0.5,0.1l0.1,0.1l0.1,0.2l0.3,0.1l0.1,0.2l0.1,0.1l0.2,0.2l0.1,0.1l0.6,0.8l0.6,0.8
	l0,0.4L41,15l-0.1,0.3l0,0.3l-0.2,0.4l-0.3,0.7l0.1,0.5l0.1,0.1l-0.1,0.1l-0.3,0l-0.2-0.2l-0.1,0l-0.1,0.2l-0.2,0.2l-0.1-0.1l0,0.1
	L39,17.7h-0.3l0-0.1l-0.1,0l-0.3,0.3l-0.2,0l0-0.1l-0.2-0.1l-0.1-0.2l-0.3-0.2l-0.2,0.1l-0.6,0.1l-0.2-0.1l0-0.2l0.2-0.2l0.2,0v-0.1
	l0-0.3l0.3-0.1l0-0.2l0-0.2l0-0.2l0.2-0.4l0.3-0.1l0.2-0.1l0.6-0.1l0.3,0l0.3,0l0.1,0.2l0.1-0.2l0.3-0.3l0-0.1l0.1-0.1l-0.1-0.1
	l0-0.2l0.1-0.1l0-0.1l-0.1-0.2l0-0.2l0.1-0.1l0-0.2l-0.1-0.1v-0.2l-0.3-0.1l-0.2-0.2l0.1-0.1l0-0.2l-0.4-0.3l-0.1-0.1l-0.1,0
	l-0.1,0.3l-0.2,0.1l-0.2-0.1l-0.1,0.1l0.1,0.2l-0.1,0.1l0,0.3l-0.2,0.3H38l-0.2,0.2l-0.1-0.1l-0.2,0.1l-0.2-0.1l0.1-0.3l-0.1-0.1
	l-0.1,0.2l-0.4,0.3l-0.2-0.1l0.1-0.5l0.1,0.1l0.1-0.2l0.3-0.1l0.2-0.4v-0.2L37.3,12l0.2-0.1h0.2l0.2-0.3l0-0.1l0.3-0.2l0.1-0.1
	L38.5,11.3z"/>
	<path id="path5093_1_" class="cls-1" d="M42,21.4L41.9,21l-0.3-0.2l-0.1,0.1l-0.3-0.3l-0.1,0.1l0,0.1l-0.3,0L40.3,21l-0.2,0.3
	l-0.4,0.2l-0.2-0.2l0.2-0.2l-0.5-0.4l-0.2,0l-0.4,0l-0.1-0.2l0.3-0.5l0.2-0.1l0-0.1l-0.3-0.1l-0.4,0l-0.2-0.2l-0.2,0.1h-0.3
	l-0.1-0.2l0.1-0.4v-0.3l-0.1-0.2l0.2-0.1l0.1-0.1l0.2-0.2l-0.1-0.3l0.2-0.3l0.2,0.1l0,0.1l0.2,0l0.3-0.3l0.1,0l0,0.1H39l0.4-0.3
	l0-0.1l0.1,0.1l0.2-0.2l0.1-0.2l0.1,0l0.2,0.2l0.3,0l0.1-0.1l0.2,0.2l0.3,0.2l0.4-0.1l0.4,0l0.1,0.2l0.5,0.2l0.4,0.3l0.5,0.4
	l0.1,0.2l0.1,0.3l0.6,0.5l0.1,0.3l-0.1,0.2l-0.4,0.2l-0.1,0.3l-0.3,0.3l-0.7,0.2l-0.4,0.4L42,21.4z"/>
	<path id="path5087_1_" class="cls-1" d="M41.5,23.6l-0.2-0.1l-0.1,0.1L41,23.6l-0.4,0.1l-0.1-0.2l-0.2-0.1l-0.4-0.1l-0.3-0.2l-0.4,0
	l0,0.1l-0.2,0.2l-0.5-0.2l-0.7,0l-0.2-0.2l-0.2-0.1l0-0.3h-0.1L37.5,23H37l-0.2,0.1l0-0.1l-0.4-0.1l0-0.3l0-0.2l-0.1-0.1l-0.2,0.1
	l-0.3-0.3l-0.4,0l-0.1-0.1l-0.1,0l-0.4,0.3l-0.5,0l-0.1-0.2L34.1,22l-0.1,0.1l-0.2,0l-0.4,0.4l0,0.2l-0.3,0l0.1-0.2l0.1-0.2
	l-0.1-0.1l-0.1,0L32.8,22l0-0.1l0.2-0.2l0.5-0.7l0.1-0.4l0.1-0.1l0-0.3l-0.3-0.2l-0.1-0.3l0.2-0.1l0.1-0.2l0.2-0.1l0.2,0h0.1l0,0.1
	h0.1l0-0.3l0.1-0.1l0.1,0l0.1-0.1l0-0.1l-0.2-0.1l-0.1-0.3l0.1,0h0.2l0.2,0.2l0.2,0l0-0.1l0-0.3l0.1-0.2l0,0.1h0.2l0.1-0.2l0-0.2
	l0.1-0.1l0.1,0.1l0.1-0.1l0.1,0l0,0.1L36,17.7l0.2,0.1l0.2,0l0-0.2l0.1-0.3l0.2,0.1l0.6-0.1l0.2-0.1l0.3,0.2l0.1,0.2l-0.2,0.3
	l0.1,0.3l-0.2,0.2l-0.1,0.1l-0.2,0.1l0.1,0.2v0.3l-0.1,0.4l0.1,0.2h0.3l0.2-0.1l0.2,0.2l0.4,0l0.3,0.1l0,0.1l-0.2,0.1l-0.3,0.5
	l0.1,0.2l0.4,0l0.2,0l0.5,0.4l-0.2,0.2l0.2,0.2l0.4-0.2l0.2-0.3l0.4-0.2l0.3,0l0-0.1l0.1-0.1l0.3,0.3l0.1-0.1l0.3,0.2l0.1,0.4
	l0.2,0.1l0,0.8L42,22.6L41.9,23l0,0.3l0.1,0.3L41.5,23.6z"/>
	<path id="path5049_1_" class="cls-1" d="M42,23.6l-0.5,0l-0.2-0.1l-0.1,0.1L41,23.6l-0.4,0.1l-0.1-0.2l-0.2-0.1l-0.1,0.4l0.2,0.1v0.1
	l0.1,0v0.1l-0.2,0.2l0,0.1l0.1,0.1v0.1l0.2,0.3l0,0.1l-0.2,0.1L40,25.7L39.9,26l-0.1,0.2v0.3l-0.2,0.1l0,0.2l0.1,0.1V27l0.2,0.1v0.5
	l-0.1,0.2l0.1,0.1L40,28l1,0.2l0.1-0.2l0.3,0l0.2,0.3l0.3-0.1l0.3,0.3l1.6-0.1l0.2,0.1l0.3,0l0-0.8l-0.1-0.3l-0.2,0.1l-0.2,0.2
	l-0.3-0.1l-0.3-0.3l0-0.3l0.1-0.4l0.3-0.1l0.3-0.6l0-0.6l-0.6-0.7l-0.4-0.3l-0.2-0.2l-0.3-0.3L42,23.6L42,23.6z"/>
	<path id="path5032_1_" class="cls-1" d="M43.8,33.5l0,0.1l-0.3,0.3l-0.2,0l-0.1,0.2L42.9,34l-0.2,0.1l-0.2,0l-0.1,0.3l-0.1,0.2l-0.3,0
	l-0.2-0.1v-0.1l-0.1,0l-0.1,0.1l-0.3,0.2l-0.1,0l0,0.1l-0.1,0.1l-0.1,0l-0.1-0.1l-0.1-0.1l0.2-0.3l0.1-0.3l0.3-0.1h0.1l0.2-0.2
	l-0.1-0.1l-0.4,0l-0.1-0.2l-0.2-0.1l-0.1-0.1l-0.1,0l-0.2,0.1l-0.1-0.2l-0.3,0.1l0.3-0.3l-0.2-0.1L40,33.1l-0.2,0.3l-0.3,0.1
	l-0.1-0.1H39l-0.3-0.2L38.6,33L38.3,33l-0.2-0.2l0.1-0.3l0-0.1l0.1,0l-0.1-0.1l0-0.2l-0.1-0.2l0.2-0.2l0.1,0l0.1,0l0.1-0.3l0.1,0
	l0-0.2l0.1-0.1l0.1,0l0.1-0.1l-0.1-0.2l-0.1,0L39,30.5l0.2,0l0-0.2l0.1,0l0-0.1l0.1,0l0-0.2l0-0.1l0.1-0.1v-0.1h0.1l0.2-0.3l0.1,0
	v-0.1l-0.1,0l0-0.1l-0.2-0.1v-0.1l0.1-0.2l-0.1-0.2l-0.1,0l0-0.2l0.1-0.2h0.1l0.1,0L40,28l1,0.2l0.1-0.2l0.3,0l0.2,0.3l0.3-0.1
	l0.3,0.3l1.6-0.1l0.2,0.1l0.3,0l0,0.2l0.1,0.1l0.3,0l0.2,0l0.1,0.1l0.1,0.2l-0.1,0.1l0,0.2l0,0.3l-0.1,0.2l-0.3,0.1l-0.2,0.2
	L44,30.6l-0.2,0.2L43.8,31c0,0,0,0.2,0,0.3c0,0.1,0.2,0.1,0.2,0.1l0.2,0.3l0.2,0.1l0,0.3l-0.3,0.4l-0.3,0.3l-0.2,0.2L43.8,33.5"/>
	<path id="path5073_1_" class="cls-1" d="M45.6,34.1l-0.5,0.4L45,35l0.2,0.4l0.3,0.3l0.4,0.1l0.5,0.3l0.1,0.3v0.4l-0.2,0.4L46,37.5
	h-0.1l-0.2,0.1l0,0.3l-0.2,0.2l-0.2,0.3l0,0.2l-0.1,0.2L44.9,39l-0.2,0.3l0.1,0.1l0.5,0l0.2,0.2l0,0.3l0,0.4l-0.1,0.2l0.1,0.1
	l-0.1,0.4L45.3,41l0.1,0.1l0,0.2l0.1,0.3l0.3,0.2l0.3,0.3l0.1,0.4l0.1,0.1l0.3,0.1l0.5,0.6l0.1,0l0.3,0.4l0,0.2l0.2,0.2h0.1l0.1-0.1
	l0.2-0.1l0.2,0l0.2,0.2l0.2,0.4l0.2,0l0.9,0.1l0.2,0.2L50.4,45l0.1,0.4l0.9,0.5l0.2,0.2v0.3h0.1l0.2,0.2l0,0.1l0,0.3l0.2,0.1l0,0.2
	l-0.2,0.2v0.2l0.3,0.3l0.1,0.4l0,0h-0.3l-0.1,0.1l-0.4-0.1l-0.7,0l-0.3-0.1l-0.2,0.2L50,48.5l-0.2,0l-0.1,0l-0.2-0.2l0-0.1l-0.3-0.4
	l0-0.2l-0.1,0l0-0.1l0,0l0.1-0.2v-0.1l-0.1-0.1l-0.3-0.1l-0.1-0.2l0-0.3l0-0.2l-0.2-0.1l0-0.2l0-0.2l-0.2-0.1l-0.2,0.1l-0.1,0
	l0.1-0.1l0-0.2L47.8,45l-0.1-0.3l-0.4-0.3L47,44.3l-0.1-0.2L46.7,44l0-0.1l-0.4,0L46.2,44l-0.5-0.1l-0.3-0.2l-0.3-0.2L45,43.3l0-0.1
	l-0.3,0l-0.1,0.1l-0.3-0.1l0-0.1L44,43h-0.2l-0.4-0.1l-0.3-0.2l0-0.3L43,42.1l-0.2-0.4l-0.2-0.6l0.1-0.3l-0.1-0.2l-0.3,0l-0.1-0.1
	L42,40.4l-0.2-0.1l-0.2,0.1l-0.2-0.1L41.3,40l-0.1-0.2l0.1-0.2l-0.1-0.3l0.1-0.2l-0.1-0.2l0-0.4L41,38.2l-0.3,0L40.6,38l0.1-0.2
	l-0.1-0.1l0.1-0.2l0-0.2l-0.2-0.1l-0.1-0.5l0.1-0.2l0-0.2l-0.1-0.2L40.2,36l-0.1-0.2l0.3-0.1l0-0.1l0.3-0.3l0-0.2l0.3-0.3l0.1,0.1
	l0.1,0l0.1-0.1l0-0.1l0.1,0l0.3-0.2l0.1-0.1l0.1,0v0.1l0.2,0.1l0.3,0l0.1-0.2l0.1-0.3l0.2,0l0.2-0.1l0.2,0.1l0.1-0.2l0.2,0l0.3-0.3
	l0-0.1l0.3-0.2l0.3-0.3l0.6,0.1l0.3,0.4l0.1,0.3l0,0.3L45.6,34.1"/>
	<path id="path5063_1_" class="cls-1" d="M45.6,34.2l0.2-0.1l0.5-0.2l0.2,0.2l0.2,0l0.2,0.1l0.2,0.6l0.1,0.1l0.3,0l0.3,0l0.3,0.2
	l0.1,0.1l0,0.5l0.1,0.4l0.3,0.1l0.3,0.2l0.2,0l0.2,0l0.1,0.1l0.1,0.2l0,0.3l0.1,0.1l0.1,0.2l0.1,0.1l0.1,0.1l0.1,0.1l0.2,0.2l0,0.4
	l-0.3,0.3L49.6,39l-0.4,0l-0.1,0.1h-0.2L48.7,39l-0.2,0.1l0,0.3l-0.3,0.1l-0.1,0L48,39.6l0.1,0.1l-0.1,0l-0.1-0.1l-0.3,0l-0.1-0.1
	l-0.1,0l0,0.2l-0.1,0l-0.2-0.3l0-0.1l-0.1,0l0-0.2l0.3,0l0.2-0.3l0.3-0.1l0.1-0.3l0.1-0.3l-0.3-0.3v-0.2l0.3-0.1L48,37.2l-0.2-0.1
	L47.5,37l-0.4,0.2L47,37.1l-0.3,0.2l-0.4,0l0.2-0.4v-0.4l-0.1-0.3l-0.5-0.3l-0.4-0.1l-0.3-0.3L45,35l0.1-0.5L45.6,34.2L45.6,34.2z"
	/>
	<path id="path5054_1_" class="cls-1" d="M54.1,39.2l0.2,0.2l0.1,0.2l0.3,0.1l0.1,0.2l-0.1,0l-0.3,0.4l0.2,0.1l0,0.1h-0.2l-0.1-0.1
	l-0.2,0.1l0,0.1l-0.1,0.1l-0.2,0l-0.1-0.1l-0.2,0L53.2,41l-0.1,0l-0.1,0l-0.1,0.6l-0.1,0.1L52.4,42l-0.2,0.2l0.1,0.1l-0.2,0L52,42.4
	l-0.2,0l-0.2,0.2l0,0.1l-0.2,0.1v0.1L51.1,43l0.2,0.1l-0.1,0.2v0.2l-0.2,0l-0.2-0.2h-0.1l-0.1,0.1l0.2,0.1l0,0.2l-0.2,0l-0.2-0.1
	h-0.1l0-0.1l-0.2,0L50,43.3h-0.1l-0.1,0.1l-0.1-0.1l-0.2,0l-0.1,0.1l-0.2-0.2l-0.2,0l-0.1,0.1l0.1,0l0.2,0.2l-0.3,0l-0.1,0.1h-0.1
	L48.2,44l-0.1,0.1h-0.1l-0.2-0.2l0-0.2l-0.3-0.4l-0.1,0l-0.5-0.6l-0.3-0.1l-0.1-0.1l-0.1-0.4l-0.3-0.3l-0.3-0.2l-0.1-0.3l0-0.2
	L45.3,41l0.1-0.1l0.1-0.4l-0.1-0.1l0.1-0.2l0-0.3l0.2,0l0.3-0.1l0.1,0V40h0.3l0.3,0l0.2,0.1l0-0.2l0.3-0.2l0.1,0l0-0.2l0.1,0
	l0.1,0.1l0.3,0l0.1,0.1l0.1,0L48,39.6l0.1-0.1l0.1,0l0.3-0.1l0-0.3l0.2-0.1l0.1,0.1h0.2l0.1-0.1l0.4,0l0.5-0.3l0.3-0.3l0.2,0
	l0.1,0.2l0.2,0l0.2-0.2l0.3-0.2l0.3-0.3l0.2-0.2l0.4-0.1l0.1,0.1l0.2,0l0.1,0.2l0.1,0.2l0.1,0.3l0.1,0.3l0.2,0.4l0.3,0.1L54.1,39.2z
	"/>
	<path id="path5043_1_" class="cls-1" d="M56.1,40.4L56.1,40.4l-0.2,0.1l-0.1,0.1l-0.1,0.3l0.1,0l0.1,0.2l0.2,0L56,41.2l-0.3,0L55.6,41
	l-0.1,0.1l0,0.1l0.2,0.1l0,0.1l0,0.4l0.2,0.2l0,0.2l0.1,0.1l0.4,0.1l0.1,0.1l0.1,0V43h0.2l0.3,0.2l0,0.2l-0.2,0.1l-0.1,0.3l-0.3,0
	V44l-0.2,0l0.1,0.1l0.2,0v0.1H57l0.1,0.1l-0.1,0.2l-0.1,0l-0.2,0.1l-0.2-0.1l-0.5,0l-0.1,0.1l-0.3,0l-0.1-0.1h-0.1l-0.2-0.1l0-0.2
	l-0.2-0.1l-0.1,0L54.7,44l-0.1-0.1l-0.1,0l-0.2-0.1l-0.6,0l-0.2,0l-0.2,0L53,44l0,0.1l-0.1,0l-0.1,0l0-0.1h-0.1l-0.1-0.1l0.1-0.1
	l-0.1-0.1l0-0.2l-0.1-0.2l-0.1,0V43l-0.2-0.2l-0.2,0.1l-0.1-0.2l-0.1,0l-0.1,0l0-0.1l0.2-0.2l0.2,0l0.1-0.1l0.2,0l-0.1-0.1l0.2-0.2
	l0.2-0.4l0.1-0.1l0.1-0.6l0.1,0l0.1,0l0.1-0.1l0.2,0l0.1,0.1l0.2,0l0.1-0.1l0-0.1l0.2-0.1l0.1,0.1h0.2l0-0.1l-0.2-0.1l0.3-0.4l0.1,0
	l-0.1-0.2l-0.3-0.1l-0.1-0.2l-0.2-0.2l-0.4-0.1l0.2-0.2l0.3-0.2l0.5-0.1l0.3,0.1l0.2,0.1l0.2,0.1l0.6,0.4l0.1,0.2l0,0.2L56,40
	l-0.1,0.2l0,0.2L56.1,40.4z"/>
	<path id="path5030_1_" class="cls-1" d="M60.7,43.7l-0.1-0.1l0-0.1l-0.1-0.1l-0.2,0.1l-0.2,0.1L60,43.4l-0.1-0.2l0.2-0.1l0.1,0.1
	l0.1-0.1l0-0.1l-0.1-0.1L60,42.7h-0.1l-0.1,0.1l-0.1,0.1l-0.3,0l0-0.2l0.1-0.1l-0.1-0.1l-0.2,0l-0.1,0l-0.1,0l-0.1-0.1l0.1-0.2
	L58.9,42l-0.2,0l-0.1,0l-0.2-0.2l-0.2-0.3l-0.1-0.2l-0.3,0.1l-0.1-0.2l0.2-0.1l0-0.1l-0.1-0.1l-0.3-0.3l-0.1-0.3l-0.2-0.1L57,40.2
	l-0.2,0l-0.3,0.2l-0.4,0.1L56,40.5l-0.1,0l-0.1,0.1l-0.1,0.3l0.1,0l0.1,0.2l0.2,0L56,41.2l-0.3,0L55.6,41l-0.1,0.1l0,0.1l0.2,0.1
	l0,0.1l0,0.4l0.2,0.2l0,0.2l0.1,0.1l0.4,0.1l0.1,0.1l0.1,0V43h0.2l0.3,0.2l0,0.2l-0.2,0.1l-0.1,0.3l-0.3,0V44l-0.2,0l0.1,0.1l0.2,0
	v0.1H57l0.1,0.1l-0.1,0.2l0,0.3l-0.1,0.1l0,0l0.1,0l-0.1,0.2l0.1,0.1h0.2l0.1,0.1v0.1h0.3l0-0.1l0-0.1l0.1,0l0.2,0.1l0.1-0.1v-0.2
	l0,0l0.1-0.4l0.6-0.3l0.3-0.1l0.6,0.1l0.5,0l0-0.3l0.2-0.1l0.1,0l0,0.1l0.3,0l0.1-0.3l0.2-0.2l0-0.1L60.7,43.7z"/>
	<path id="path5024_1_" class="cls-1" d="M63.7,44.6l-0.2,0.3L63.3,45v0.1l-0.2,0.1h-0.1l-0.2,0.2l-0.2-0.1l-0.1-0.1l-0.7,0.3l-0.3,0
	l-0.3-0.1l-0.2,0l-0.4-0.1l-0.3,0l-0.1,0.2l-0.2,0.1h-0.1L60,45.6l-0.1-0.1l-0.3,0.1v0.1l-0.2,0.1l-0.1-0.1L59,45.5l-0.6,0l-0.2,0.1
	l0,0.1l-0.2,0.1L58,45.6l-0.2,0l0.1-0.1v-0.2l0,0l0.1-0.4l0.6-0.3l0.3-0.1l0.6,0.1l0.5,0l0-0.3l0.2-0.1l0.1,0l0,0.1l0.3,0l0.1-0.3
	l0.2-0.2l0-0.1l0.1,0l0.3-0.2l0.1-0.1l0.1,0l0.2,0.2l0.2,0l0.2-0.2l0.1-0.2l0-0.1l0.1,0h0.1l0,0.3l0.2,0.1l0.2,0l0.3-0.2l0.2,0.2
	l0.1,0.2l0.2,0.2l-0.1,0l-0.2-0.1l-0.1,0.2l0,0.2l0.3,0l0.1,0.1l0.2,0L63.7,44.6z M56.8,45.1L56.8,45.1l0.1-0.4l-0.1,0l-0.2,0.1
	l-0.2-0.1l-0.5,0l-0.1,0.1l-0.3,0l-0.1-0.1h-0.1l-0.2-0.1l0-0.2l-0.2-0.1l-0.1,0L54.7,44l-0.1-0.1l-0.1,0l-0.2-0.1l-0.6,0l-0.2,0
	l-0.2,0L53,44l0,0.1l0.2,0l0.1,0.1h0.2l0,0.2l0.2,0.2l0.2-0.1l0.1,0l0,0.4l0.1,0.1l0.3-0.1H55l0.5-0.1h0.2L55.8,45l0,0.1h0.6
	l0.2-0.1L56.8,45.1L56.8,45.1z"/>
	<path id="path5127_1_" class="cls-1" d="M67.7,48.2l-0.3,0.2l-0.2,0.1H67l-0.1-0.1l-0.1,0.1v0.2l0.1,0.1l-0.1,0.1l0,0l0,0.1l0,0.2
	l-0.2,0l-0.1,0.2l0,0.2l0.2,0l0.1,0l0,0.2l0.1,0.1l-0.1,0.2h-0.1l-0.1,0.1l0.2,0.3l-0.1,0.1l-0.2,0.1l-0.2-0.2L66,50.5l-0.3,0.2
	l-0.1,0l-0.2,0.1l-0.2,0.1L65,50.7v-0.3l0-0.1l-0.1,0l-0.1-0.1l0.1,0l-0.1-0.2v-0.2l0-0.1l-0.1-0.1l-0.1-0.1l0.1-0.1l0-0.1l-0.1-0.1
	l-0.3,0V49l0-0.1l-0.1,0l0,0l0.1-0.1l0-0.1l-0.1-0.2l0.1,0l0.1,0.1l0.1-0.1l0-0.1V48l0.1,0v-0.2l-0.2-0.1v0.1l-0.1,0.1L64,47.7
	l-0.2-0.1l0.1-0.1l-0.1-0.2l0.1-0.2l0.1,0l0.1-0.1l0.1-0.1L64,46.6l-0.2-0.1v-0.1l0.1,0l0.1-0.2l-0.1-0.2l-0.2,0l-0.1,0l-0.1-0.1
	l0.1-0.2l0.1-0.1l0-0.1l-0.1,0l0-0.1l0.1,0l0.2-0.3l0-0.2l0.1-0.1l0.1-0.1l0-0.1l0.1,0l0.3,0.1l0.1,0.2l0.1,0l0.2,0l0.1,0.2l0.2-0.1
	h0.4l0.1-0.1l0.1,0l0.6,0.9l0,0l0.1,0.1l-0.1,0.2l-0.1,0.1l0,0.4l-0.1,0.1l0.1,0.1l0,0.2l0,0.1l0.1,0.1l0,0.2l0.2,0.2h0l0.1,0.1
	l0,0.1l0.3,0.2l0.1,0l0.2,0.2l0.1,0l0,0.1l0.1,0L67.7,48.2L67.7,48.2z"/>
	<path id="path5122_1_" class="cls-1" d="M67.4,53.4L67,53.5l0-0.3l0-0.2l-0.1-0.2l-0.2-0.1l0,0.1l-0.1,0.1l-0.2-0.2l0-0.2l-0.3-0.2
	l-0.3,0.1l-0.1,0.2l-0.1,0.2l-0.2,0l-0.3-0.3l-0.4,0.2l0.1-0.3l-0.2-0.2l0-0.2l0.2-0.1l0.2,0l0.2-0.1l0.1-0.1l0.1-0.2h0.1l0.2-0.1
	l0.1-0.2l0.1,0l0-0.1l0.2-0.1l0,0.1h0.2l0.1-0.1l0-0.3l0.1-0.1l-0.2-0.3l0.1-0.1h0.1l0.1-0.2l-0.1-0.1l0-0.2l-0.1,0l-0.2,0l0-0.2
	l0.1-0.2l0.2,0l0-0.2l0-0.1l0,0l0.1-0.1l-0.1-0.1v-0.2l0.1-0.1l0.1,0.1h0.2l0.2-0.1l0.3-0.2l0.1-0.1l0,0.1l0,0.1l0,0l0.2,0.2v0.1
	l0.2,0.2V49l0.1,0l0,0.1l-0.1,0v0.2l0,0.2l-0.1,0.1l0,0l0.1,0l0,0.2l0,0.2l0,0.2l0,0l0,0.1L68,50.6l-0.2,0.1l-0.1,0.1l0,0.1l0,0.3
	l0.1,0.1l0,0.5l-0.1,0.1l-0.1,0.4l-0.1,0.2l0,0.3l0,0l0,0.3l0,0.1L67.4,53.4z"/>
	<path id="path5116_1_" class="cls-1" d="M69.3,59.2L69.3,59.2l-0.5,0l0.1-0.1l0-0.1l0.1,0l0-0.1l-0.1-0.1v-0.5l-0.1-0.1l-0.2,0.1
	l-0.3,0l-0.3-0.3l-0.2-0.1l-0.1-0.1h-0.1L67.3,58l-0.1-0.1l0.1-0.1l0-0.2l0.1-0.1l0.1-0.1l-0.2,0L67,57.2l-0.2,0.1l-0.1,0l-0.1-0.1
	l0-0.1L66.4,57l-0.3,0L66,57.1l-0.2,0L65.4,57l-0.1-0.1L65,56.8l-0.1-0.1l-0.1,0.1v0.1l-0.1,0l-0.1,0l-0.1-0.1l0-0.1l-0.2,0.1l0,0.2
	l-0.2,0L64,57.1l-0.3,0.2l-0.1,0.1l0,0.2l-0.2,0l0,0l0.1,0.1l0,0.1l0,0.1l0,0.1l-0.1-0.1l-0.1,0h-0.1l-0.2,0.1l-0.2-0.1l-0.1,0
	l0,0.1l-0.1,0l0,0l-0.1,0l0,0.1l-0.1,0l-0.2,0l0,0l-0.1,0.1l0,0.1h-0.1l0.2,0.1L62,58.4l-0.1,0l-0.1-0.1l-0.1,0l-0.1,0h-0.1l-0.1,0
	v0.1l-0.1,0.1l-0.2,0.2l-0.2,0l0-0.1l-0.2-0.1l0-0.1l-0.2,0.1l-0.1,0.1h-0.2l-0.1,0L59.9,59l-0.1,0c0,0-0.1,0.1-0.1,0.1
	c0,0,0,0.1,0,0.1l-0.1,0l-0.1,0.1l-0.1,0.1l-0.8,0.8L58,60.5l-0.3,0.2l-0.5,0.4l0,0L57,61.2l-0.2,0.4L56.4,62l-0.3,0.3l-0.3,0.3l0,0
	l-0.1,0.1l-0.1,0.3l-0.2,0.2l-0.1,0.2l-0.2,0.2l-0.2,0l-0.3,0l-0.4-0.3V63l0.1-0.1l0-0.4l0-0.1l0-0.2l0.1-0.1l0.1-0.1l0.1,0.1l0-0.2
	l0.1-0.1l0-0.2l0.1-0.1l0-0.1l0-0.1l0.2-0.3l0.2-0.1l0.1,0l0.1-0.1l0.3-0.4l0.5-0.6l0.4-0.4l0.3-0.2l0.1,0.2l0.2,0l0.1,0.1l0.1-0.1
	l0.1,0l0.1-0.1l0.1,0l0.2,0l0.2-0.1h0.1l0.1,0.1l0.1,0.1l0.1-0.1l0.1,0l0.1-0.2l-0.1-0.1l0.1-0.1l0.1-0.1H59l0.1-0.2l0.1,0l0.1-0.1
	l0-0.1l0.2,0l0.2-0.4l0-0.1l0.1,0L60,58l0.2-0.1l0.2,0l0.1-0.2l0,0.1l0.2-0.2l-0.1,0l0-0.1l-0.1-0.1l0.1,0l0.1,0.1l0.2,0.1l0,0
	l0-0.1h0.1v-0.1l0.1-0.1l0.1,0.1v0.1l0.1,0l0.1,0l0,0.1l-0.1,0.1l0,0.1L61.3,58l0.1,0l0.2-0.3l0.2-0.3l0-0.4l0.2-0.1l0-0.1l0.1,0
	l0-0.2l0.1,0l0.2-0.1l0.2-0.2l0-0.1l0.2,0l0.1-0.1l0.1-0.2l0.3-0.3l0.2-0.1h0.1l0.2-0.3l0-0.1h-0.1l-0.1-0.1L63.6,55l0.1,0l0-0.1
	h0.2l0.2-0.2l-0.4-0.1l-0.1-0.2l-0.2,0l0-0.2v-0.2l0.1-0.1l-0.3,0l-0.1-0.1l-0.1,0L62.8,54l-0.1-0.2l-0.1,0l-0.1-0.1l-1.1-0.1
	l-0.1,0.1v0.1l-0.1,0l-0.1-0.1l-0.1,0l-0.1-0.1h-0.2l-0.1-0.1l-0.4,0L60,53.7l-0.2,0.1l0-0.2l0.1-0.2l0.1,0l0-0.2l0.1-0.1l0-0.2
	l-0.1-0.2l0-0.1h0l0.2,0.1l0,0.2l0.1,0.1l0.1,0l0.1,0.1h0.1l0-0.1l0.1-0.1l0.1,0.1h0.3l0.2-0.1v-0.1l0.1,0v-0.2l0.1,0l0.1,0l0.5,0
	l0.3,0.1l0.1,0l0.3-0.1l0-0.1l0.1,0.1l0,0.1l0.1,0l0.1-0.1l0.1-0.1h0.1v0.2l0.2,0.2l0.1-0.1h0.1l0,0.1l0.2,0l0-0.2h0.1l0.1-0.1
	l0.2,0.2l-0.1,0.3l0.4-0.2l0.3,0.3l0.2,0l0.1-0.2l0.1-0.2l0.3-0.1l0.3,0.2l0,0.2l0.2,0.2l0.1-0.1l0-0.1l0.2,0.1l0.1,0.2l0,0.2l0,0.3
	l0.4-0.2l0.3-0.3l0.1,0.1l0.1,0.2l0.2,0.3h0l0.1,0.1l0,0.1l0.1,0.1l0,0.3l0.2,0.3l0.1,0.1l0.2,0.2l0.1,0.1l0,0.1l-0.1,0l0,0.2
	l-0.1,0.1l0,0.2l-0.1,0.1l0,0.4l0.1,0.2l0.1,0.2l0.1,0.1l0.1,0.2l0,0.2l0.2,0.2l0.2,0.1l0.1,0.1v0.1l-0.1,0.2l-0.1,0v0.1l0.1,0.2
	l0,0.2l-0.1,0.1l0,0l-0.1,0.5l0.1,0l0,0.2L69.3,59l0,0L69.3,59.2L69.3,59.2z"/>
	<path id="path5111_1_" class="cls-1" d="M66.7,66.8l-0.1-0.2l-0.2-0.1l0-0.2l0.1-0.1l0-0.2l0.1-0.1l-0.1-0.2l0-0.2l-0.3,0.1l-0.3-0.1
	l0-0.1l-0.5-0.2l-0.1-0.2L65,64.7l-0.4-0.1l0-0.1l0.1-0.2l-0.1-0.1h-0.1l-0.1,0.1l-0.1-0.1l-0.2,0.2h-0.1l-0.1-0.1l-0.2,0.1
	l-0.2-0.1l-0.1-0.1l-0.1,0.1l0,0.1l-0.1,0l-0.1-0.1l-0.1,0l-0.1,0l-0.2,0.1l-0.2,0.2l-0.2,0.1l-0.2,0l-0.1-0.1l-0.2,0l-0.1,0.1h-0.1
	l0-0.1h-0.1l-0.1,0l0,0.1l-0.2,0L60.7,65l-0.1,0.1h-0.1l-0.1,0.1l-0.2,0.1l-0.4,0.1l-0.6,0.4l-0.3,0l-0.2,0.1l-0.1,0h-1l-0.3,0
	l-0.4,0l0-0.3l-0.1-0.3l-0.2-0.2l-0.2-0.3l0-0.2l0.1-0.1l0.1,0l0.2,0l0.1,0.1l0.2,0l0.1-0.1l0-0.1l0-0.3l0-0.1l0-0.1l0.2,0l0.1-0.1
	l0.1-0.2l0.1-0.2l0.1-0.2l0.4-0.2l0.2-0.2l0.2,0l0-0.1l-0.1-0.1v-0.1l0.1-0.1h0.1l0.2-0.2l0-0.2l0.1-0.2l0.1-0.1l0.1,0l0.1-0.1
	l0.1-0.2l0-0.1l0.1-0.2l0.1,0l0.4-0.3l0.1-0.2l0.1,0l0.2,0l0.3,0l0.2-0.1h0.1l0-0.1l0.2-0.1l0.8-0.3L62,60l0-0.1l0.2-0.2l0.3,0
	l0.2-0.1l0.3,0l0.2,0l0.4-0.2h0.2l0-0.1l0.1-0.1l0.2,0l0.3,0l0.2-0.1l0,0.1l-0.1,0.1l0,0.1l0.1,0l0.1-0.1l0-0.1l0.1,0l0,0.1l0.2,0
	l0.1,0.1l0.1-0.1l0.1,0v-0.3l0.1,0l0.2,0l0.1-0.1l0-0.1l0.1-0.2l0.1,0l0.2,0h0.1l0.2-0.1l0-0.2l-0.1-0.1l0-0.2L66.4,58l-0.1-0.4
	l0-0.1l0-0.2l0-0.2l0.2,0.1l0,0.1l0.1,0.1l0.1,0l0.2-0.1l0.2,0.1l0.2,0l-0.1,0.1l-0.1,0.1l0,0.2l-0.1,0.1l0.1,0.1l0.3,0.1h0.1
	l0.1,0.1l0.2,0.1l0.3,0.3l0.3,0l0.2-0.1l0.1,0.1v0.5l0.1,0.1l0,0.1l-0.1,0l0,0.1l-0.1,0.1l0.4,0l0.1,0l0.1,0.1l0,0.4L69.2,60l0,0.1
	l-0.1,0.1l0.1,0.2l0.2,0.3l0,0.1l-0.1,0l-0.1,0.1L69.1,61l-0.1,0l0,0.1l0,0l0.1,0.3l0.2,0.2l0,0.1l-0.1,0l-0.1,0.3l-0.1,0L69,62.2
	l0,0.2l0,0l0,0.2l-0.2,0.2l-0.1,0.4l0,0l0,0.1l0.1,0.2l0,0.3v0.2l0.1,0.2l0,0.3l-0.1,0.2L68.5,65l-0.1,0.1L68.4,65h0l-0.2,0.2
	l-0.1,0.2L68,65.6l-0.2,0.2l-0.4,0.1l-0.2,0.3L67,66.2L67,66.4L66.7,67L66.7,66.8z"/>
	<path id="path5096_1_" class="cls-1" d="M66.7,67l0,0.6h-0.1l0,0.6l0.2,0.4l0.3,0.6l0.2,0.4v0.3l0.1,0.2l0,0.3l0.1,0.4l0.1,0.2l0,0.2
	l0.1,0.4l0.2,0.2l0.2,0.3l-0.1,0.3l-0.1,0.1l0,0.1l0.1,0.2l0.1,0.3l0.1,0.3l0.1,0.3l0,0.4l-0.2,0.7l-0.2,0.3l0,0.2l-0.1,0.1l0,0.2
	l0.1,0.1l-0.2,0.1l-0.1-0.1l-0.4-0.1L67,75.2l-0.2-0.1l0-0.2l-0.2-0.1L66.5,75l0.1,0.1l0,0.1l-0.2,0l0,0l0,0.1l-0.5,0.1l-0.3,0.1
	l-0.4,0.1h-0.2l0.1,0.1l0,0.1L65,76l0.2,0.2l0.2,0l0.2,0.1l0.1,0.2l-0.1-0.1l-0.2,0l-0.2-0.1l-0.2,0l-0.1,0.1l-0.2-0.1l0-0.1l-0.1,0
	L64.4,76l-0.1,0l0,0.1l-0.1,0.2l-0.1-0.1l-0.2-0.1l-0.1,0.2l-0.1-0.2l-0.1,0l-0.1,0.1l-0.2,0c0,0,0-0.1-0.1-0.1c-0.1,0-0.3,0-0.3,0
	l-0.2,0.1c0,0,0.1,0.1,0,0.1c-0.1,0-0.2,0.1-0.2,0.1l-0.3,0l-0.2,0.1L62,76.5l-0.3,0l-0.1,0.2l-0.2,0l-0.2,0.3l-0.1-0.1h-0.2
	L60.8,77l-0.1,0l-0.1,0l-0.1,0.2L60.5,77l-0.1,0l0,0.2l-0.1,0.4l-0.1,0.2l0,0.1l0.2,0.1l-0.1,0.1v0.2l-0.2,0l0,0.1l-0.2,0.2
	l-0.1,0.1l-0.2,0.2l0-0.2l0.1-0.1l-0.1-0.2l-0.2-0.2l-0.2,0l0-0.1l-0.4,0l-0.4,0.2l-0.3,0.2h-0.2l0-0.1l-0.1-0.2v-0.3l-0.1,0
	l-0.1-0.2h0.1l0.1-0.2l0.1,0l0-0.1l-0.2-0.2v-0.3l0.1,0l0.1-0.4l0.1,0l0.2-0.4l0-0.1l0.1-0.1l0.2,0l0.4-0.1l0-0.1h0.6l0.2-0.1
	l0.1-0.1l0.2,0l0.1-0.2V75l0.3-0.2l-0.1-0.2l-0.5,0.1l-0.1,0.1l-0.3-0.1l-0.1,0l-0.1,0.1l0.1-0.2l0.2-0.2l0.2-0.1l0-0.1l0.1-0.1
	l0.1,0l0.3-0.1l-0.1-0.1l0.2-0.2l0-0.2l0-0.1v-0.3l0.1-0.1l0.2,0L61,73l0.2-0.1l0-0.1l0.1,0l0.2,0l0.1-0.1l0.1,0l0.1-0.1l0.1-0.2
	l0.2-0.2l0.1,0l0.1-0.1l0-0.2l-0.1-0.1l0-0.2l0.1,0l0.2-0.1l0.2,0l0.1-0.1l0-0.1l0-0.1l0.2-0.1l0.2-0.1v-0.4l0.2-0.2l0-0.4l0.2-0.2
	L63.7,69l-0.1-0.1l0-0.3l-0.1-0.2l0.1-0.5l0.1,0l0.2,0l0-0.1l0.1-0.1l-0.1-0.2h-0.1l0-0.2l-0.1-0.1l-0.1,0l-0.2,0l0.1-0.2l0-0.2
	l-0.2,0l-0.1,0l-0.2,0l-0.2-0.1l-0.1-0.2h-0.3l0-0.1v-0.1l-0.1-0.1l0-0.2l0.2-0.1l0-0.1l0.1,0l0-0.2l-0.1-0.1v-0.1h0.1l0.1-0.1
	l0-0.1l-0.2,0l-0.1-0.2l0.1-0.1l0.1-0.3l0.1-0.1l-0.1-0.2l0.1,0l0.1,0l0.1,0.1l0.1,0l0-0.1l0.1-0.1l0.1,0.1l0.2,0.1l0.2-0.1l0.1,0.1
	h0.1l0.2-0.2l0.1,0.1l0.1-0.1h0.1l0.1,0.1l-0.1,0.2l0,0.1l0.4,0.1l0.3,0.2l0.1,0.2l0.5,0.2l0,0.1l0.3,0.1l0.3-0.1l0,0.2l0.1,0.2
	L66.5,66l0,0.2l-0.1,0.1l0,0.2l0.2,0.1l0.1,0.2L66.7,67L66.7,67z"/>
	<path id="path5018_1_" class="cls-1" d="M65.7,82l-0.8,0l-0.1,0l-0.1,0.2l-0.2,0.1l-0.2,0.2l0,0.1l-0.2,0.2L63.9,83l-0.1,0l0,0.1
	l-0.2,0.1l-0.1,0l0,0.1l-0.2,0.1l-0.1,0.2L63,83.4l-0.2,0l-0.1,0.2l-0.2-0.1l0-0.1l-0.2,0l0-0.1l-0.3,0l-0.2-0.1l-0.1-0.1l-0.2,0
	l-0.1,0.2l-0.1,0.1v0.2l-0.2,0l0,0.2L60.7,84l-0.1,0l-0.1-0.1l0,0.1l-0.1,0.1l-0.1,0L60,84.3l-0.1,0.3l-0.1,0.1h0.1v0.1l0.1,0.1
	l0.1,0l0.2,0V85h0.1l0.1,0.1l-0.1,0.1l0.1,0l0,0.1l-0.1,0.1h-0.1l0,0.1l-0.1-0.1l0-0.1l-0.1,0l0,0.2l-0.1,0l-0.1-0.1l-0.2,0
	l-0.1-0.1l-0.2,0l-0.1,0l-0.1,0.1l-0.2,0.1h-0.1L58.6,86l-0.1,0L58.4,86l-0.1,0l-0.2,0.2l-0.2,0l-0.1,0.1l-0.3,0l-0.1,0l0,0.2
	l-0.1,0.2L57,86.5l-0.2,0h-0.2l-0.2,0.2v0.1L56.3,87l0.1,0.2l0,0.1l0.1,0.1l-0.1,0.2l0.2,0.5l0.4,0.1l0.1,0.1l0,0.2l0.1,0.5l0,0.3
	l-0.1,0.1l0.1,0.1l-0.1,0.2L57,89.9l0.1,0.2l0.1,0.1l0,0.3l0.2,0v0.1L56.9,91l-0.1,0l0,0.3l-0.1,0.1l-0.1,0.3l0,0.1l0,0.2l-0.3,0.1
	l-0.1,0l-0.1,0.2l0.1,0l0.1,0.2l-0.1,0l-0.2,0.1h0l0-0.1l-0.1,0l-0.2-0.2l-0.1-0.1l-0.1,0.1h-0.1l-0.1,0.1h-0.1l0-0.1h-0.2l-0.1,0
	l-0.1-0.1v-0.2l0,0l0-0.1l-0.1,0l0-0.1l0.1-0.3l0-0.6l-0.1,0l-0.1-0.2l-0.1-0.1l-0.2,0l-0.1-0.1l0-0.3l-0.1-0.1l0-0.2l-0.1-0.2V89
	l-0.1-0.1l-0.1,0l-0.4-0.6l-0.2-0.6v-0.2l0.1-0.1l0-0.1l-0.1-0.1l0,0l0.1,0V87l0.1-0.2l0.1-0.1l0.1-0.3l0-0.4l0.1-0.2v-0.1l0,0
	l0-0.1l-0.1-0.1l0-0.2L53.6,85v-0.3l-0.1,0l-0.1-0.1l0.1-0.1l0-0.2l0.2-0.3l0.2-0.2l0.2,0l0.1-0.1l0-0.1l0.3-0.2h0.1l0.1-0.1v-0.1
	l0.1-0.1l0.1,0l0.1-0.1l0.1-0.3v-0.1l0.1-0.1h0.1l0.1,0l0.1-0.2l0.1-0.1h0.1l0.1-0.1h0l0.1-0.1l-0.2-0.2l0-0.1l-0.1,0l-0.1,0l0-0.1
	l-0.1-0.1l-0.3,0l-0.1-0.1l0-0.2l-0.1-0.1l0.2,0l0.3,0.1l0.4,0l0.3,0.2l0.2,0l0.1,0.1l0.1-0.1l0.1-0.2h0.1l0.7-0.5l0.2-0.2l0-0.1
	l0.1-0.1l0.2-0.1l0.4-0.3l0.1-0.1l0.1,0l0.1,0l0.2-0.3l0,0l0-0.2l0.1-0.2l0.1,0l0.3,0l0.1-0.1l0.2-0.1l0.1,0l0-0.1l0.1-0.1l0.1,0
	l0.1-0.1l0.1-0.1l0.2-0.2l0-0.1l0.2,0v-0.2l0.1-0.1l-0.2-0.1l0-0.1l0.1-0.2l0.1-0.4l0-0.2l0.1,0l0.1,0.1l0.1-0.2l0.1,0l0.1,0
	l0.1-0.2h0.2l0.1,0.1l0.2-0.3l0.2,0l0.1-0.2l0.3,0l0.1-0.1l0.2-0.1l0.3,0c0,0,0.1,0,0.2-0.1c0.1,0,0-0.1,0-0.1L63,76
	c0,0,0.2,0,0.3,0c0.1,0,0.1,0.1,0.1,0.1l0.2,0l0.1-0.1l0.1,0l0.1,0.2l0.1-0.2l0.2,0.1l0.1,0.1l0.1-0.2l0-0.1l0.1,0l0.1,0.2l0.1,0
	l0,0.1l0.2,0.1l0.1-0.1l0.2,0l0.2,0.1l0.2,0l0.1,0.1l-0.1-0.2l-0.2-0.1l-0.2,0L65,76L65,75.9l0-0.1l-0.1-0.1h0.2l0.4-0.1l0.3-0.1
	l0.5-0.1l0-0.1l0,0l0.2,0l0-0.1L66.5,75l0.1-0.1l0.2,0.1l0,0.2l0.2,0.1l0.1,0.3l0.4,0.1l0.1,0.1l0.2-0.1l0,0.1l0.2,0.3l0,0.3
	l-0.2,0.2l0,0.2l0,0l0,0.2l0.1,0l0.1,0.2l0.1,0.2L68,77.7l-0.2,0.1h-0.2l-0.1,0.1l0,0.2l-0.1,0.2l-0.1,0.1l0,0.2l-0.1,0.2l0,0.2
	L67,79.3l-0.3,0.3L66.4,80L66,80.3l-0.2,0l-0.1,0.1l-0.1,0.4l-0.1,0.1l0,0.1l0.1,0l0.1,0.2l-0.1,0.1l0.1,0.2l0.1,0.3l0.1,0.1l0,0.1
	L65.7,82z"/>
	<path id="path5016_1_" class="cls-1" d="M65.9,82L65.9,82l0.2,0.4l0,0.1h0l-0.2,0.5l-0.2,0.2v0.1l-0.1,0.1l0,0.3l0.1,0.2l0,0.2l0,0
	l0,0.2l0,0l-0.1,0.5l-0.1,0.1L65.3,85l-7.8,7.6L57,92.4l-0.2,0l0-0.1l-0.1,0l-0.2,0.1l-0.1,0l-0.1-0.2l-0.1,0l0.1-0.2l0.1,0l0.3-0.1
	l0-0.2l0-0.1l0.1-0.3l0.1-0.1l0-0.3l0.1,0l0.4-0.3v-0.1l-0.2,0l0-0.3L57,90.1L57,89.9l0.1-0.1l0.1-0.2l-0.1-0.1l0.1-0.1l0-0.3
	l-0.1-0.5l0-0.2L57,88.2l-0.4-0.1l-0.2-0.5l0.1-0.2l-0.1-0.1l0-0.1L56.3,87l0.1-0.1v-0.1l0.2-0.2h0.2l0.2,0l0.2,0.1l0.1-0.2l0-0.2
	l0.1,0l0.3,0l0.1-0.1l0.2,0l0.2-0.2l0.1,0l0.2,0.1l0.1,0l0.2-0.2h0.1l0.2-0.1l0.1-0.1l0.1,0l0.2,0l0.1,0.1l0.2,0l0.1,0.1l0.1,0
	l0-0.2l0.1,0l0,0.1l0.1,0.1l0-0.1h0.1l0.1-0.1l0-0.1l-0.1,0l0.1-0.1L60.3,85h-0.1v-0.1l-0.2,0l-0.1,0l-0.1-0.1v-0.1h-0.1l0.1-0.1
	l0.1-0.3l0.1-0.1l0.1,0l0.1-0.1l0-0.1l0.1,0.1l0.1,0l0.1-0.1l0-0.2l0.2,0v-0.2l0.1-0.1l0.1-0.2l0.2,0l0.1,0.1l0.2,0.1l0.3,0l0,0.1
	l0.2,0l0,0.1l0.2,0.1l0.1-0.2l0.2,0l0.1,0.1l0.1-0.2l0.2-0.1l0-0.1l0.1,0l0.2-0.1l0-0.1l0.1,0l0.3-0.1l0.2-0.2l0-0.1l0.2-0.2
	l0.2-0.1l0.1-0.2l0.1,0l0.8,0L65.9,82z"/>
	<path id="path2856_1_" class="cls-1" d="M64.6,52.3l0-0.2l0.2-0.1l0.2,0l0.2-0.1l0.1-0.1l0.1-0.2h0.1l0.2-0.1l0.1-0.2l0.1,0l0-0.1
	l0.2-0.1l0,0.1h0.2l0.1-0.1l0-0.3l-0.2,0.1l-0.2-0.2L66,50.5l-0.3,0.2l-0.1,0l-0.2,0.1l-0.2,0.1L65,50.7l0-0.3l0-0.1l-0.1,0
	l-0.1-0.1l0.1,0l-0.1-0.2v-0.2l0-0.1l-0.1-0.1l-0.1-0.1l0.1-0.1l0-0.1l-0.1-0.1l-0.3,0V49l0-0.1l-0.1,0l0,0l0.1-0.1l0-0.1l-0.1-0.2
	l0.1,0l0.1,0.1l0.1-0.1l0-0.1V48l0.1,0v-0.2l-0.2-0.1v0.1l-0.1,0.1L64,47.7l-0.2-0.1l0.1-0.1l-0.1-0.2l0.1-0.2l0.1,0l0.1-0.1
	l0.1-0.1L64,46.6l-0.2-0.1v-0.1l0.1,0l0.1-0.2l-0.1-0.2l-0.2,0l-0.1,0l-0.1-0.1l0.1-0.2l0.1-0.1l0-0.1l-0.1,0l0-0.1l0.1,0l0.2-0.3
	l0-0.2l0.1-0.1l-0.2-0.1l-0.1,0.2l-0.2,0.3L63.3,45v0.1l-0.2,0.1l-0.1,0l-0.2,0.2l-0.2-0.1l-0.1-0.1l-0.7,0.3l-0.3,0l0,0.9l-0.1,0.2
	l0,0.1l0.1,0.2l0,0.8l0.1,0.3l-0.1,0.1l0.1,0.2l0.1,0.3l0.3,0.3l0.2,0.1l0,0.1l-0.1,0l0.1,0.2l-0.1,0l-0.1,0.2l-0.1,0l-0.1,0.1
	l0.2,0.1l-0.1,0.1l-0.1,0L62,50.1l-0.2,0l0.1,0.1v0.1l0.2,0.1l0,0.3l0,0.1v0.2L62,51.1L61.9,51h0l-0.1,0.1l-0.2,0.1v0.1l-0.2,0.1
	l-0.2,0.2l-0.1,0.2l-0.2,0.1h-0.1L60.8,52l0,0.2l-0.2,0.1l-0.1,0l-0.1,0.1l-0.2,0l-0.1,0.1l0.2,0.1l0,0.2l0.1,0.1l0.1,0l0.1,0.1h0.1
	l0-0.1l0.1-0.1l0.1,0.1h0.3l0.2-0.1v-0.1l0.1,0v-0.2l0.1,0l0.1,0l0.5,0l0.3,0.1l0.1,0l0.3-0.1l0-0.1l0.1,0.1l0,0.1l0.1,0l0.1-0.1
	l0.1-0.1h0.1v0.2l0.2,0.2l0.1-0.1h0.1l0,0.1l0.2,0l0-0.2h0.1L64.6,52.3z"/>
	<path id="path2848_1_" class="cls-1" d="M60.1,52.6l0.1-0.1l0.2,0l0.1-0.1l0.1,0l0.2-0.1l0-0.2l0.1-0.1h0.1l0.2-0.1l0.1-0.2l0.2-0.2
	l0.2-0.1v-0.1l0.2-0.1l0.1-0.1h0l0.1,0.1l0.1-0.2v-0.2l0-0.1l0-0.3l-0.2-0.1v-0.1l-0.1-0.1l0.2,0l0.1-0.1l0.1,0l0.1-0.1l-0.2-0.1
	l0.1-0.1l0.1,0l0.1-0.2l0.1,0l-0.1-0.2l0.1,0l0-0.1L62.2,49l-0.3-0.3l-0.1-0.3l-0.1-0.2l0.1-0.1l-0.1-0.3l0-0.8l-0.1-0.2l0-0.1
	l0.1-0.2l0-0.9l-0.3-0.1l-0.2,0l-0.4-0.1l-0.3,0l-0.1,0.2l-0.2,0.1h-0.1L60,45.6l-0.1-0.1l-0.3,0.1v0.1l-0.2,0.1l-0.1-0.1L59,45.5
	l-0.6,0l-0.2,0.1l0,0.1l-0.2,0.1L58,45.6l-0.2,0l-0.1,0.1l0,0.1L57.5,46l-0.1,0l-0.1,0.1l0,0.5l-0.1,0l-0.1,0.2l0,0.3l-0.1,0.1h-0.1
	l0,0.1l-0.3,0.2v0.2l-0.4,0l0,0.1l-0.2,0L56,47.7l-0.4,0l0-0.2l0-0.1l-0.1-0.1l-0.2,0.1l-0.2-0.1l0.1-0.3l0-0.2h-0.2v0.1l-0.2,0v0.1
	l-0.1,0.2h-0.2l-0.1,0h-0.2l0,0.1l0.2,0.2l0.3,0l0-0.1l0.1,0l0.1,0.2h0.1l0.4,0.2l0.1,0.2l0.1,0v0.2l0.2,0.2l0,0.1l0.1,0l0.1,0.2
	l0.1,0.1l0.1,0l0.2-0.1h0.1l0.2,0.1l0.5,0l0.4,0.2l0.2-0.1l0.1-0.2l0.2-0.1h0.3l0.3-0.3l0.3-0.1l0.5,0l0.1-0.1l0.2,0.1l0.3,0
	l0.3-0.2l0.2-0.1l0.1,0.1l0,0.3l0.2,0.2l0.4-0.2v0.5l-0.2,0.1l-0.1,0.2l0,0.2L61,49.6l-0.2,0.3l-0.1,0.3l-0.2,0.1l-0.5,0.5l-0.3,0.3
	l-0.2,0v-0.1l0,0l-0.2,0.1l-0.2,0.1l-0.2,0l-0.1-0.1h-0.1l-0.3,0.2l-0.1,0.3l0.3,0.3L59,52l0.3-0.1l0.2,0.1l-0.1,0.3l0.1,0l0.4,0
	L60.1,52.6z"/>
	<path id="path2791-4_1_" class="cls-1" d="M45.5,39.9l0.2,0l0.3-0.1l0.1,0V40h0.3l0.3,0l0.2,0.1l0-0.2l0.3-0.2l-0.2-0.3l0-0.1l-0.1,0
	l0-0.2l0.3,0l0.2-0.3l0.3-0.1l0.1-0.3l0.1-0.3l-0.3-0.3v-0.2l0.3-0.1L48,37.2l-0.2-0.1L47.5,37l-0.4,0.2L47,37.1l-0.3,0.2l-0.4,0
	L46,37.5h-0.1l-0.2,0.1l0,0.3l-0.2,0.2l-0.2,0.3l0,0.2l-0.1,0.2L44.9,39l-0.2,0.3l0.1,0.1l0.5,0l0.2,0.2L45.5,39.9L45.5,39.9z"/>
	<path id="path7226_1_" class="cls-1" d="M26.6,16.2l0-0.5l-0.1-0.2l0-0.2l0-0.2l0.1-0.1l0.1,0.1l0.2-0.1l0.1-0.1l-0.1-0.2
	c0,0,0.1-0.1,0.1-0.1c0,0,0.1-0.2,0.1-0.2l-0.2-0.1l0-0.2l0.1,0l0,0.1l0.1,0l0.1-0.1l0.1,0l0-0.1l-0.1-0.1l0-0.1l0.1-0.2l0-0.3
	l0.1-0.1l0.1,0.1v0.1l0.2,0.1l0.1-0.1l-0.1-0.1l-0.2-0.1c0,0,0-0.2,0-0.2c0,0-0.1-0.2-0.1-0.2v-0.2l0.1-0.2l0.2,0l0.1-0.1h0.1l0,0.1
	l0.4,0.2l0.1,0l0.1,0.1V13l0.1,0.1l0.1-0.1h0.1l0.1,0.3l0.2,0l0.1,0.2l0.3,0.1l0.1,0.1v0.1l-0.1,0.3v0.2l0.1,0.1l-0.1,0.3h-0.1
	l-0.1,0l-0.1,0.1l0,0.2l-0.6,0.2l-0.2,0l-0.2,0l-0.1,0v0.2l0.2,0.3l0,0.4l-0.2,0.2l0,0.1l-0.3,0.1l-0.1-0.1l-0.2,0.1l-0.2,0.1
	l-0.3,0l-0.2,0.1l-0.1-0.1L26.6,16.2z"/>
	<polygon class="cls-1" points="24.6,12 24.6,12 24.6,12.1 24.6,12.1 24.6,12.1 24.6,12.2 24.6,12.2 24.6,12.2 24.6,12.2 24.6,12.2
	24.6,12.2 24.6,12.2 24.6,12.2 24.6,12.2 24.6,12.3 24.7,12.3 24.7,12.3 24.8,12.3 24.8,12.3 24.8,12.4 24.9,12.4 24.9,12.3
	24.9,12.3 24.9,12.3 24.9,12.3 24.9,12.2 25,12.2 25,12.1 25,12.1 25,12.1 24.9,12.1 24.9,12.1 25,12.1 25,12 24.9,12 24.9,11.9
	24.9,11.9 24.9,11.9 25,11.9 25,11.9 25.1,11.8 25.1,11.8 25.2,11.7 25.2,11.7 25.3,11.7 25.3,11.8 25.3,11.8 25.3,11.8 25.3,11.8
	25.3,11.8 25.3,11.9 25.3,11.8 25.3,11.8 25.3,11.8 25.3,11.9 25.4,11.9 25.4,11.9 25.4,11.9 25.4,11.8 25.3,11.8 25.3,11.8
	25.3,11.7 25.4,11.7 25.4,11.7 25.4,11.7 25.4,11.7 25.4,11.7 25.4,11.8 25.4,11.8 25.4,11.8 25.5,11.8 25.5,11.8 25.5,11.8
	25.5,11.8 25.5,11.9 25.5,11.9 25.5,11.9 25.5,11.9 25.5,11.9 25.5,11.9 25.5,11.9 25.6,11.9 25.6,11.9 25.6,11.9 25.6,11.9
	25.7,11.9 25.7,11.8 25.7,11.8 25.7,11.8 25.8,11.8 25.8,11.8 25.7,11.7 25.8,11.7 25.8,11.7 25.8,11.7 25.8,11.7 25.8,11.7
	25.8,11.7 25.9,11.6 25.9,11.6 25.9,11.6 25.8,11.6 25.8,11.6 25.8,11.6 25.8,11.6 25.7,11.6 25.8,11.6 25.8,11.6 25.7,11.6
	25.7,11.5 25.7,11.5 25.7,11.5 25.7,11.5 25.7,11.5 25.7,11.5 25.7,11.4 25.6,11.4 25.6,11.5 25.6,11.5 25.6,11.5 25.6,11.5
	25.6,11.5 25.6,11.5 25.6,11.5 25.6,11.6 25.7,11.6 25.7,11.6 25.7,11.6 25.7,11.6 25.7,11.6 25.7,11.6 25.7,11.6 25.7,11.6
	25.7,11.6 25.7,11.6 25.6,11.6 25.6,11.5 25.6,11.5 25.6,11.5 25.6,11.5 25.6,11.5 25.6,11.4 25.6,11.4 25.6,11.4 25.6,11.4
	25.6,11.4 25.7,11.4 25.7,11.4 25.7,11.4 25.8,11.4 25.8,11.4 25.7,11.4 25.8,11.4 25.8,11.4 25.8,11.4 25.8,11.4 25.8,11.4
	25.8,11.4 25.8,11.4 25.9,11.3 25.9,11.4 25.9,11.4 25.9,11.4 25.9,11.4 25.9,11.3 25.7,11.2 25.6,11.2 25.6,11.2 25.6,11.2
	25.5,11.2 25.5,11.2 25.5,11.2 25.5,11.2 25.4,11.2 25.3,11.1 25.3,11.1 25.2,11.1 25.2,11 25.1,11 25.1,10.9 25,10.9 25,10.9
	25,10.9 25,10.8 25,10.8 25,10.8 25,10.8 24.9,10.9 24.9,11 24.9,11 24.9,11 24.9,11 24.9,11 24.9,11 24.9,11.1 24.9,11.2
	24.8,11.2 24.7,11.2 24.7,11.3 24.7,11.3 24.7,11.3 24.7,11.4 24.6,11.4 24.6,11.4 24.6,11.4 24.6,11.4 24.6,11.4 24.6,11.4
	24.6,11.5 24.6,11.5 24.6,11.5 24.6,11.5 24.6,11.5 24.6,11.6 24.6,11.6 24.6,11.6 24.6,11.6 24.6,11.7 24.6,11.7 24.6,11.8
	24.6,11.8 24.6,11.8 24.6,11.8 24.6,11.9 24.6,11.9 24.6,11.9 24.6,12 24.6,12 "/>
	<path class="cls-1" d="M31.9,3.7l0-0.2l-0.3-0.3l-0.2,0.1l-0.2,0l-0.5,0.1l-0.5,0.1l-0.4,0.1l-0.5,0l-0.1,0l0,0.1l0.1,0.1l-0.1,0.1V4
	l-0.2,0.2l-0.2,0l-0.2,0.1l0,0.1l-0.2,0.2h-0.1l-0.3,0.1l-0.1,0L28,4.9l0,0l-0.1,0.2l0.1,0.4l-0.2,0.1l-0.3,0.2L27.2,6l-0.3,0
	l-0.2,0l0,0l0,0l0,0l-0.2,0l0,0l0,0h0l0,0l0,0l0,0l0,0l0,0l0,0.1l-0.1,0l0,0l0,0l0,0l0,0l0,0l0.1,0.1l0,0l0.1,0.1L26.9,7L27,7.1
	l0,0.1l-0.1,0.2l0,0.1l0,0l0,0l0,0l0,0l0,0l0,0l0.1,0v0l0,0l0,0l0,0l0,0l0,0l0,0l0,0l0,0l0,0l0,0l0,0l0,0l0,0.1l0,0l0,0l0,0l0,0.1
	l0,0l0,0l0,0l0,0l0,0l0,0l0,0l0,0l0,0L27,8.1l0,0.1l0,0l0,0l0-0.1l0,0l0,0l0,0l0.1,0l0,0.1l0,0l0,0h0l0,0l0,0l0,0l0,0l0,0l0,0l0-0.1
	l0,0v0l0,0l0,0l-0.1,0l0-0.1v0l0,0v0l0,0v0L27,8l0,0l0,0l0,0l0,0l0,0l0,0l0,0l0,0l0,0l0,0l0,0l0,0l0,0l0,0l0,0l0,0l0,0l0,0l0,0v0
	l0,0h0l0,0l0,0l0,0l0,0l0,0l0,0l0,0l0,0l0,0l0,0.1l0,0.1l0,0l0,0l0,0l0,0l0.1,0l0,0l0,0l0,0l0,0l0,0l0,0l0,0l0,0l0,0l-0.1,0l0,0l0,0
	l0,0l0,0l0,0l0,0l0,0.1l0.1,0.1l0,0.1l0,0.1l0,0l0,0.1l0,0l0,0.1l0,0l0,0.1l0,0l0,0.1l0,0l0,0l0,0l0,0l0,0l0,0l0,0l0,0.1l0,0l0,0
	l0.1,0.1h0l0,0v0l-0.1,0.1h0l0,0l0,0l0,0l0,0.1l0.1,0.1l0,0v0l0.1,0.1l0,0l0,0l-0.1,0.1l0,0L27.2,10l0,0v0l0,0l0,0.1h0v0l0,0l0,0
	l0,0l0,0l0,0l0,0l0,0h0l0,0v0l0,0l0,0l0,0l0,0l0,0l0,0l0,0l0,0l-0.1,0l0,0l0,0l0,0l0,0l0,0l0,0l0,0l0,0l0,0l-0.1,0l0,0L27,10h0l0,0
	l0,0l-0.1,0l0,0l-0.1,0l0,0l0,0l0,0l0,0l0,0l0,0l0,0l0,0l0,0l0,0l0-0.1l0,0l0-0.1l0.1-0.1l0,0l0-0.2l0,0l0,0v0l0,0l0-0.1l0,0l0,0
	V9.1l0,0l0,0l0,0l0,0l0,0l0,0l0,0l0,0v0l0,0l0,0l0,0l0,0l0,0l0,0l0,0l0,0l0.1,0l0.1,0l0.1,0.1l0,0l0,0l0,0l-0.1,0l0-0.1l0,0l0,0l0,0
	l0,0l0,0l0,0l0,0l0,0L27,8.5h0l0-0.1l0,0l0,0l0,0l0,0l0.1-0.1l0,0l0,0l0,0h0l0,0l0-0.1l0,0l0,0l0,0l0,0l0,0l0,0l0,0.2l-0.2,0.3
	l-0.1,0.1l-0.1,0.1l0,0.1L26.5,9l-0.1,0l-0.1,0.1l-0.2,0.1l0,0l-0.1,0.1L26,9.5l-0.1,0l-0.2,0.1l-0.1,0.1l-0.1,0.1l-0.1,0l0,0l0,0
	l0,0l0,0l0,0.1l0,0v0l-0.1,0.1l-0.1,0.1l-0.1,0.1l0,0l0,0l0,0l0.1,0.1l0,0l0,0l0,0l0,0l-0.1,0l0,0l0,0l0,0l0.1,0l0.1,0l0.2,0.1
	l0.1,0l0,0l-0.1-0.1l0,0l-0.1-0.1l0,0l0,0l0,0l0,0l0-0.1l0.1-0.1h0l0,0l0,0h0l0,0l0,0l0,0l0,0l0,0l0,0l0,0l0,0l0,0l0,0v0l0,0l0,0
	l0,0l0,0l0,0l0.1,0.1h0l0,0l0,0l0,0l0-0.1l0,0l0,0l0,0l0,0l0,0l0,0l0,0l0,0l0,0l0,0l0,0l-0.1,0l0,0L25.7,10l0,0l0,0l0.1,0l0,0l0.1,0
	v0l0,0l0.1,0l0,0h0l0,0l0,0l0.1,0l0,0l0.1,0l0,0l0,0l0,0l0,0v0l0,0l0,0l0,0l0,0l0,0l0,0l0,0l0,0l0,0l0.1,0l0,0.1l0,0l0,0v0l0,0v0
	l0,0l0,0l0,0l0,0l0,0h0l0,0l0,0l0,0l0,0l0,0l0,0l0.1,0l0,0l0,0l0,0l0,0l0,0l0,0l0,0l0,0l0,0l-0.1,0l0,0l0,0l0,0v0l0,0l0.1,0.1
	l0.1,0.1l0.1,0l0,0l0,0l0-0.1l0,0v0l0,0l0,0l-0.1-0.1l0,0l0,0l0-0.1l0,0l0,0l0,0l0,0l0,0l0,0l0,0h0l0,0l0,0h0l0.1,0.1l0,0.1l0.1,0
	l0,0l0,0l0,0l0,0.1l0,0l0,0l0,0l0,0l0,0l0,0.1l-0.1,0l0,0l0,0l0,0l0,0l0,0l0,0l0,0l0,0l0,0l0,0l0,0v0l0,0l0,0l0,0l0,0.1l0.1,0
	l-0.1,0l0,0l0,0l0,0l0,0l0-0.1l0,0.1l0,0l0,0l0,0.1l0,0l0,0.1l0,0l0.1,0l0,0l-0.1,0l-0.1,0.1v0l0,0l0,0.1l0,0l0,0v0l0,0v0.1l0,0l0,0
	l0,0.1l0,0l0,0l0.1,0l0,0v0l0,0l0,0v0l0.1,0l0,0.1l0,0l0,0.1l0,0l-0.1,0.1l0,0l-0.1,0l0-0.1l0,0v0h0l0,0l0,0l-0.1,0l0,0l0,0.1l0.1,0
	l0,0l0,0l0,0l0,0l0,0l0,0.1l0,0l0,0l0,0l-0.1,0l-0.1,0l-0.1-0.1l0-0.1l0,0l-0.1,0.1l0,0l0.1,0.1l0,0.1l0,0.1L26,13.1l-0.1,0.1
	l-0.1,0l0.1,0l0.1-0.1l0,0l0,0.1l0,0l0,0l0,0.1l-0.1,0l0,0l-0.1,0l0,0l0-0.1l0,0l-0.1,0.1l-0.2,0.1l-0.1,0.1l0,0l0.1,0l0,0l0,0.1
	l0,0v0l0,0l0,0l0,0l0,0l0,0l0,0l-0.1,0l-0.1,0l-0.1,0l0,0l-0.1-0.1l-0.1-0.1l0-0.1l0,0l0,0l0,0l0,0l0,0l0,0l0,0h0l0,0.1l0,0l0-0.1
	l0,0l0,0l0,0v0l0,0l0-0.1l0,0l0,0l0,0l0,0l0-0.1l0.1,0l0-0.1l0,0l-0.1,0.1l-0.1,0l0,0l0,0l0,0l0,0.1l0,0l-0.1,0.1l0,0.1l0,0l0,0.1
	l-0.1,0.1l0,0.1l0,0l0,0l0,0l0,0l0,0.1l0,0l0,0.1l0,0l0.1,0l0,0l0.1,0.1l0.1,0l0.1,0l0,0l-0.1,0l0,0l-0.1,0l0,0l0,0h-0.1l0,0h0l0,0
	l-0.1,0.1l-0.2,0l0,0l0,0l-0.1,0l0,0l0,0l0,0l0,0l0,0.1L23.9,14l0,0l0,0l0,0l0,0.1l0,0l0,0l0.1,0l0.1,0.1l0,0l0.1,0l0,0l0.2,0l0,0
	l0.1,0l0,0l0,0h0l0,0l0.1,0l0,0l0,0l0,0.1l0,0l0,0.1l0,0l0,0l0,0l0,0l0,0l0,0l0.1,0l0.1,0l0,0l0,0l0,0l-0.1,0l0,0h0l0,0l-0.1,0l0,0
	l0,0l0,0l0,0l0,0l0,0l-0.1,0l0,0l0,0v0l0,0l0,0.1l0,0.1l0,0.1l-0.1,0.1l-0.1,0.1l-0.1,0l0,0l0,0.1l0,0l-0.1,0.1l-0.1,0.1l-0.1,0.1
	l0,0l0,0.1l0,0l0,0l0,0.1l0,0l0-0.1v0l0,0l0,0l0,0l-0.1,0l0,0.1l0,0l0,0l0,0l0,0.1l0,0l0,0l-0.1,0h-0.1l0,0l0,0l0,0.1l0,0l0.1,0
	l0.1,0V16l0,0l-0.1,0.1l0,0l-0.1,0l-0.2,0.1l-0.1,0l0,0l0,0l0,0l-0.1,0l0,0h-0.1l0,0h0l0,0l0,0l0,0l0.1,0l0,0l0,0l0,0l-0.1,0
	l-0.1,0.1l0,0l0,0l0,0h0l0,0l0,0.1l0,0l0,0.1h0l0,0l0,0l0,0.1l0,0l-0.1,0l-0.1,0l0,0l0,0h-0.1v0l0,0l0,0l0,0l0,0l0,0l0-0.1l0,0l0,0
	l0,0l0,0l0,0l-0.1,0l0,0l0,0l0,0l0,0l0,0l0,0l0,0.1l0.1,0.1l0.1,0l0,0l0.1,0l0,0l0,0l0.1,0l0.1-0.1l0-0.1l0,0l-0.1,0l0,0l0,0l0.1,0
	l0,0l0,0l0,0l0,0l0,0l-0.1,0l0,0l0,0l0.1,0l0.1,0l0,0l0.1,0l0,0l0,0l0.1-0.1l0,0l0,0l0.2-0.2l0.1-0.1l0-0.2l0.1-0.1l0.1-0.2l0,0l0,0
	l0,0l0,0l0-0.1l0,0l0-0.1l0.1,0v0l0,0l0,0.1l0,0l0,0.1l0,0l0,0.1l0,0l0.1-0.1l0.1-0.1l0.1-0.1l0,0l0,0l0.1-0.1l0-0.1l0.1-0.1l0.1,0
	h0.2l0.1,0l0.1-0.1l0.2-0.2l0,0l0.1-0.1l0,0l0.1-0.1l0.1,0l0.1-0.1l0.1,0l0.2-0.1l0,0l0,0h0.1l0,0l0.1-0.1l0,0l0,0l0.1,0l0-0.1
	l0.1-0.1h0.1l0.2,0.1l0.1,0l0,0h0.1l0,0l-0.1,0.1l-0.1,0l0,0l0,0l0,0.1l-0.1,0l0,0l-0.1,0l0,0l0,0l-0.1,0.1l0,0l0,0l0.1,0v0l-0.1,0
	l0,0.1l0,0l0.1-0.1l0.1,0l0.1,0l0,0l0,0.1l0,0l0,0h0l0,0l0,0l0,0l0,0l0-0.1h0l0,0l0,0l0,0.1l0,0.2l0,0.1l0,0.1l0,0.1l0,0.1l0,0.1
	l0,0l0,0.1l0,0.1l0,0l0.1,0l0,0h0l0,0l0,0l0,0l0,0l0,0l0,0l0,0l0,0l0,0h-0.1l0,0l0,0l0,0l0,0l0,0l0,0l-0.1,0l0,0l0,0v0l0,0l0,0l0,0
	l0,0v0l0,0l0,0l0,0l0,0l0,0l0,0l0,0l0,0l-0.1,0l0,0.1l0,0l0,0.1l0,0l0,0l0,0l0,0l0,0l0-0.1l0,0l0-0.1l0.1,0l0,0.1l0,0l0,0l0,0l0,0
	l0,0.1l-0.1,0.1l0,0l0,0l0,0l0,0l-0.1,0l0,0l0,0l-0.1,0.1l0,0l0,0l0,0l0,0l0,0l0,0l0,0l0,0l0,0l0,0l0,0.1l0,0.1l0,0v0l0,0l0,0l0,0h0
	l0,0.1l0.1,0.1l0,0l0,0l0,0l0,0l0,0l0,0l0,0l0,0l0,0l0,0l0,0l0,0l0,0l0,0h0l0.1,0l0,0l0,0l0,0l0,0l0,0l0,0l0,0l0,0l0,0h0l0,0l0,0
	l0,0.1l0,0l0,0l0,0l-0.1,0l0,0l0,0L25,17l0,0l0,0h0l0,0l0,0.1l0,0.1l0,0l0,0l0,0l0,0.1l0,0l0,0.1l0,0.1l0.1,0.1l0.1,0.2l0,0.1
	l1.7-1.3l-0.1-0.3l0-0.5l-0.1-0.2l0-0.2l0-0.2l0.1-0.1l0.1,0.1l0.2-0.1l0.1-0.1l-0.1-0.2c0,0,0.1-0.1,0.1-0.1c0,0,0.1-0.2,0.1-0.2
	l-0.2-0.1l0-0.2l0.1,0l0,0.1l0.1,0l0.1-0.1l0.1,0l0-0.1l-0.1-0.1l0-0.1l0.1-0.2l0-0.3l0.1-0.1l0.1,0.1v0.1l0.2,0.1l0.1-0.1l-0.1-0.1
	l-0.2-0.1c0,0,0-0.2,0-0.2c0,0-0.1-0.2-0.1-0.2v-0.2l0.1-0.2l0.2,0l0.1-0.1h0.1l0,0.1l0.4,0.2l0.1,0l0.1-0.1l-0.1-0.1l0-0.4
	l-0.2-0.3l0-0.2l0.1-0.1l0-0.2L28,11.2L27.9,11L28,11l0.1-0.1l0.2-0.1h0.2l0.1-0.1l0.1-0.1l0-0.1l-0.1-0.1l-0.1-0.2l-0.2-0.1
	l0.2-0.1l0.3-0.2L29,9.6l0.1-0.2l0-0.2V8.9l0-0.4l0.2-0.6l0.1-0.4l0.2,0h0.1l0.2,0l0.2-0.1l0-0.1l-0.2,0l-0.1-0.1l-0.2,0l-0.1,0
	L29.5,7l0.3-0.1L30,6.7l0-0.3l-0.1-0.1L30,6.3l0.2,0l0.1-0.1V5.8l0.1-0.1l0,0l0.1,0l0-0.1l0.1-0.1l0,0l-0.1-0.2l-0.2-0.1L30.6,5
	l0.2,0l0.4-0.1l0.2-0.4l0.3-0.3l0-0.4l-0.1,0L31.9,3.7z"/>
	<polygon class="cls-1" points="24.9,12.7 24.9,12.7 24.9,12.7 24.9,12.6 24.9,12.5 24.9,12.6 24.9,12.6 24.9,12.6 24.9,12.6
	24.9,12.6 24.9,12.6 24.9,12.6 24.9,12.7 "/>
	<polygon class="cls-1" points="25,12.5 25,12.5 24.9,12.5 24.9,12.5 24.9,12.5 24.9,12.5 25,12.5 25,12.5 25,12.5 "/>
	<polygon class="cls-1" points="26.4,12 26.5,12 26.5,12 26.5,12 26.5,12 26.5,12 26.4,12 "/>
	<polygon class="cls-1" points="26.4,11.4 26.5,11.4 26.5,11.4 26.5,11.4 26.5,11.4 26.4,11.3 26.4,11.3 26.4,11.3 26.4,11.4
	26.4,11.4 26.4,11.4 "/>
	<polygon class="cls-1" points="26.5,11.2 26.5,11.2 26.5,11.2 26.5,11.1 26.4,11.1 26.4,11.1 26.5,11.1 26.5,11.1 26.4,11.1
	26.4,11.1 26.4,11.1 26.4,11.1 26.5,11.2 26.5,11.2 26.5,11.2 "/>
	<polygon class="cls-1" points="25.4,11.9 25.4,11.9 25.4,11.9 25.4,11.9 25.4,11.9 25.4,11.9 25.4,11.9 25.4,11.9 25.4,11.9 "/>
	<polygon class="cls-1" points="26.1,12.8 26.1,12.8 26.1,12.7 26.1,12.7 26.1,12.7 26.1,12.6 26.1,12.7 26,12.7 26,12.7 26.1,12.8 "/>
	<path id="path5429_1_" class="cls-1" d="M49.3,68.6l-0.1-0.3l-0.3-0.3l-0.2-0.7l-0.1,0.1l-0.1,0.1l-0.1,0l0.1-0.1v-0.6l-0.1-0.2l0-0.2
	l0-0.1l-0.2,0l-0.1-0.2l-0.1-0.3l-0.1,0l0-0.1l-0.1-0.2l-0.3,0l0.1-0.2l-0.1-0.2l-0.2-0.1l-0.1-0.3l-0.1,0l-0.1-0.3V64l-0.1-0.1
	l-0.1-0.3h0.1l0.1-0.1l0.2-0.2l0.1-0.2l0.2-0.2l0.2-0.1l0.2,0.2l0.2,0.1l0-0.2l0.1-0.1l0-0.2l0.2-0.1l0.1,0l0.3-0.2l0.1,0l0.4-0.1
	l0-0.1l0.4-0.2l0.2,0l0.3,0.2l0.2,0l0.2-0.1l0-0.1l0.1-0.3l0.2-0.2l0.2,0l0.2-0.1L51,61.2L51,60.9l-0.1,0v-0.1l-0.1-0.1l-0.1,0
	l-0.1-0.2l0-0.2l0.1-0.2l0-0.3l0.1-0.3l0.1-0.2v-0.2l-0.1-0.1l0-0.2l0.1-0.1l0.1,0l0.2,0l0.3,0l0.1,0h0.1l0.2,0l0-0.1l0.1-0.2
	l0.1-0.1l0.1,0l0.1,0.2l0,0.2l0,0.5l0.2,0.5l0.2,0.3l0.1,0.1l0,0.1L52.8,60l0.1,0.3l0.2,0.1l0.1,0.2l0.2,0.2l0.4-0.1l0.2,0l0.2,0.2
	l0.2,0.1l0.2,0.3l0,0.2l0.1,0.2l0,0.2l-0.1,0.1l0,0.2L54.6,62l-0.1,0.1l-0.1,0.1l0,0.2l0,0.1l0,0.4L54.3,63v0.3l0.4,0.3l0.3,0l0.2,0
	l0,0.1l0.1,0.2l0,0.5l0.1,0.1l0.1,0.1l0.2,0l0.2-0.1l0.4,0l0.1,0.1l0,0.2l0.2,0.3l0.2,0.2l0.1,0.3l0,0.3l-0.1,0.2l0.1,0.2l0,0.2
	l-0.1,0.1l0,0.1l-0.2,0.1v0.1l0.1,0.1l0,0.1l-0.2,0.2l-0.2,0.1v0.1l-0.1,0.1l0,0.1l0.1,0.1l0.2,0.3l0,0.1l0.1,0.2l0.2,0.1l0,0.1
	l0.1,0.2L57,69l0,0.7l-0.1,0.1l0.1,0.1l0,0.3l-0.2,0l-0.1,0l-0.1,0.1l-0.2,0.1l-0.2-0.1l-0.1-0.1L56,70h-0.2l-0.1-0.1L55.5,70v0.1
	l-0.2,0l-0.1,0.1l-0.2,0.2l-0.1,0l0,0.2l-0.2,0.1v0.2l0.3,0.3l0.1,0l0,0.1l-0.2,0.2l-0.1,0l-0.4,0.4l-0.1,0.2l-0.1,0.1h0.1l0.2,0.1
	v0.2l-0.1,0.1L54.5,73l-0.3,0.3v0.2L54,73.6l-0.2-0.1l-0.1-0.1l-0.5-0.2l-0.1-0.1L53,73.2l-0.3,0l-0.2,0.1l-0.1,0.2l0,0.4l-0.1,0.3
	l0,0.6l-0.1,0.5l-0.2,0.3l0.1,0.1l0.1,0.3l0.2,0l-0.2,0.1l0,0.2l-0.1,0l-0.1,0l-0.1,0l0.1,0.2l-0.1,0.1L52,76.9l0.1,0.1l0,0.2l0,0.1
	l-0.1,0v0.2l-0.2,0.2h-0.1l0,0.1l0.1,0l0.1,0.3l0.1,0.3l-0.1,0.2h-0.1l0,0.1l0.1,0.2L51.8,79l0,0.2l-0.2,0l-0.3,0.1l0,0.1h-0.2
	l0,0.1l0.1,0.1l0,0.1l0.1,0.1v0.2l0,0.3l0,0.5l-0.1,0l0,0.1h-0.1L51,80.8v-0.1l-0.1-0.1l-0.1,0l0,0.1l-0.1,0l-0.1-0.2l0-0.1
	l-0.1-0.1l-0.1,0.1l0,0.1l0.1,0.1l0,0.2L50.4,81l0-0.2l0-0.1l-0.1-0.1l-0.1-0.1l0,0.1l-0.1,0l0,0.2l0,0.2l-0.1,0l-0.1-0.1l0,0.1
	l0,0.1l-0.2,0.1l0,0.1h-0.1l0.1,0.2l0,0.1L49.4,82l-0.3,0l-0.1-0.1l0-0.1l0,0l0.1-0.1L49,81.6l-0.2-0.1l0.1-0.2l-0.1-0.2l0.1-0.1
	l0.2-0.1l0-0.1l-0.1,0l-0.1-0.2l-0.1-0.1l0-0.1l0,0l0-0.1l0-0.2l0.2,0l0.1,0.1l0,0.1l0.1,0l0.1,0l0.1-0.1l0-0.2l0.1-0.1l0-0.1
	l-0.1-0.1l0-0.1l0-0.2l0-0.3l0-0.3l-0.1-0.2l0-0.2l0.1-0.1l0.1,0l0-0.2l0.1-0.5l0-0.1l0-0.2l0.1-0.3l0-0.1l0-0.1l0.3-0.2l0-0.2
	l0.2,0l0-0.1l0.2-0.1l0.1,0l0.2-0.1l0.1,0.1l0.1,0l0-0.1l0.2,0l0,0.1l0.2,0l0-0.1l0.2-0.1l0.1,0l0-0.1l0.1-0.1l0-0.2l-0.1-0.1
	l0.2-0.2l0-0.1l0.1-0.1l0-0.1l0.1,0l0-0.1l0.1-0.1l0-0.2l0-0.1l0-0.1l0-0.3l0-0.1l0-0.2l0-0.1l-0.2-0.1l-0.1,0l0,0l-0.1,0l-0.1,0.1
	l0,0.1l-0.1,0.1l0,0.1l-0.1,0l0,0.1l-0.1,0l0-0.2l0-0.1l-0.1-0.1l-0.1,0l-0.1,0.1l-0.1,0l0,0l-0.2,0.1l0,0l0-0.3l-0.1-0.1l-0.2,0.1
	l0-0.2l0.1-0.1l0-0.1l0.1,0l0-0.3l-0.1-0.4l0-0.2l-0.1-0.1l0-0.1l0-0.2l-0.1,0l0.1-0.1l0.1-0.2l0-0.4l0-0.1l0-0.2l0-0.1l0-0.1l0-0.1
	l0-0.1l-0.1-0.1l-0.1,0l-0.1-0.1l-0.1,0l0-0.1l0-0.4l-0.1-0.1l-0.1,0l-0.1-0.1l0-0.2l-0.2-0.1L49.6,69l-0.1,0l-0.1-0.1l0-0.1l0-0.1
	l0-0.1l-0.1,0l0,0.1L49.3,68.6L49.3,68.6z"/>
</svg>
