<?xml version="1.0" encoding="utf-8"?>
<!-- Generator: Adobe Illustrator 25.0.1, SVG Export Plug-In . SVG Version: 6.00 Build 0)  -->
<svg version="1.1" id="Capa_1" xmlns="http://www.w3.org/2000/svg" xmlns:xlink="http://www.w3.org/1999/xlink" x="0px" y="0px"
	 viewBox="0 0 92.1 93.1" style="enable-background:new 0 0 92.1 93.1;" xml:space="preserve">
	 <defs>
        <style>.cls-1{fill: #ebebef;;stroke:#fff;stroke-miterlimit:3.86;stroke-width:0.25px;}</style>
    </defs>
	<path name="Armenia" data-id="825" id="path3260_1_" class="cls-1"  d="M26,46.8l0-0.6l-0.2-0.1l-0.4,0.2l-0.3-0.8l-0.4-0.1l0.2-0.4l-0.1-0.2l0.4-0.5l0.5-0.3h0.5
	l0.1-0.3h0.3l0.6-0.3l0-0.2l0.2-0.4l0.4,0l0.2-0.6l0.2-0.1v-0.4l-0.2-0.1l0.1-0.5l0.2-0.1l0-0.3l0.2-0.3l0.1-0.4l-0.2-0.3l0.3-0.1
	l0-0.7l-0.2,0l-0.4,0.6l-0.7,0.2l-0.5,0l0.3-0.3l0.1-0.6L26.6,39l-1,0.1l0.2-0.3l0.8-0.3l0.7-0.3l0.2-0.5L27.3,37l0.3-0.4l0-0.4
	l-0.4,0.2L27.1,36L26.8,36l0.1-0.5l1-0.6l1.4,0l1-0.7l0.2-0.5l0.4-0.3l-0.8-0.1l-0.6,0.2l-0.6,0l-0.5,0.2l-1-0.1l-0.8,0.3l-0.1-0.2
	H26l-0.4,0.4L25.4,34l-0.2,0.4h-0.6l-0.2,0.2L24,34.7L23.7,35l-0.8-0.1l0.1-0.4l0.7,0.2l1.2-0.5l-0.2-0.5l-0.5,0l0.3-0.6l0.7-0.8
	l-0.2-0.5l0.5-0.5l-0.2-0.5l0.9-1.3l0.4-0.4l0.2-1.3l0.3-0.3L27,27.2l0.8-0.8l0.7-0.1l0.3,0.3l0.5-0.1l0.3-0.5c0,0,0.7,0.7,0.9,0.7
	c0.2,0,0.2-0.3,0.2-0.3l0.5,0l0.6,0.1l0.1,0.1l0.3,0l-0.1-0.3l0.8-0.5l0.1,0.4l0.3-0.4l0.3,0.1l0.4-0.2l0.4,0.3l0.5-0.4l0.5,0.3
	l0.1-0.6l0.3,0l0.3-0.1l0.2,0.5l0.4-0.1l-0.1-0.4l0.3,0.1l0.3-0.3l0.7-0.3l0.4,0.3l0.3-0.2l0.4,0.4l0.6-0.2l0.4,0.2l0.3-0.2l0.4,0
	l0.9-0.5l0.3-0.6l0.7-0.5l0.2-0.5l-0.3-0.2l0.1-0.3l0.4-0.2l-0.1-0.3l0.3-0.2l0.1-0.4l0.4-0.1l0.2-0.3h1l0.4-0.5l0.4,0l0-0.6
	l0.2-0.2l0.4,0.7l-0.3,0.2v0.7l-0.3,0.5l0.3,0.4l0.5-0.5l0.2,0.3l0.4,0.3l-0.7,0.7l-0.4-0.1l0,0.5l-0.4,0.2l0,0.5v0.6l-0.6,0.7
	L44.4,25l-0.4,1l-0.3,0.1l-0.8,0.6l-0.1,0.5l-0.4,0.2L42.1,28l-0.8,0.3v0.4l-0.6,0.1l-0.4-0.3l-0.2,0.1l-0.5,0l0.3,0.5l-0.1,0.2
	l-0.6,0.1l0.1,0.4L39.1,30l0.1,0.1l-0.1,0.7l0,0.5l-0.3,0.3L38.7,32l-0.2,0.6L38,32.7l-0.5,0.4l-0.2,0.6l-0.4,0.1l-0.1,0.4h-0.4
	l0.2,0.7L36,35.1l-0.1,0.3l0.3,0.2l-0.4,0.3l0.1,0.3l-0.1,0.5l-0.5,0.1l-0.1,0.5l0.2,0.2c0,0-0.2,0.1-0.4,0.1
	c-0.1,0.1,0.2,0.3,0.2,0.3l-0.5,0.6l-0.2,0.6l-0.3,0.4l-0.5,0.1l-0.1,0.7L33.1,40l-0.3,0.3l-0.2,0.4l-0.5,0L32,41.1l0.1,0.4
	l-0.7-0.1l-0.3,0.3l-0.5-0.3l-0.4,0.3l0.2,0.3v0.4l-0.4,0.1v0.8l-0.3,0.6v0.4l-0.8,0.2l-0.2-0.3l-0.6,1l0.1,0.3L28,46l0.1,0.3
	l-0.5,0.6L26,46.8L26,46.8z"/>
	<path name="CIRCASIA" data-id="828" id="path3256-4_1_" class="cls-1" d="M45.4,19.3l-0.2,0.2l0,0.6l-0.4,0l-0.4,0.5h-1L43.3,21L42.9,21l-0.1,0.4l-0.3,0.2l0.1,0.3
	l-0.4,0.2l-0.1,0.3l0.3,0.2l-0.2,0.5l-0.7,0.5l-0.3,0.6l-0.9,0.5l-0.4,0l-0.3,0.2l-0.4-0.2l-0.6,0.2l-0.4-0.4l-0.3,0.2l-0.4-0.3
	L37,24.6L36.7,25l-0.3-0.1l0.1,0.4l-0.4,0.1l-0.2-0.5l-0.3,0.1l-0.3,0l-0.1,0.6l-0.5-0.3l-0.5,0.4l-0.4-0.3l-0.4,0.2l-0.3-0.1
	l-0.3,0.4l-0.1-0.4l-0.8,0.5l0.1,0.3l-0.3,0l-0.1-0.1l-0.6-0.1l0.3-0.5l0.7-0.2l0.5-0.4l0.5,0.1l0.1-0.2l0.8-0.2v-0.3l-0.5,0.1
	l0.3-0.5l-0.6,0.2l0-1.2l0.3-0.2l-0.1-0.3l0.5-0.4l0.4,0.2l0.2-0.1l-0.3-0.4l-1-0.3l-0.2,0.1h-0.3l-0.4-0.5l0.1-0.3L32,20.3l0.1-0.3
	h0.2l0.3-0.3L32.4,19l0.2-0.3l0.3,0.5l0.6,0V19l0.4,0l0.2-0.3l0.9,0.2l0.1-0.9l0.5,0.1l0.5-0.5l0-0.5l0.7-0.4l0.3-0.1l0.4,0.2l0-0.4
	l0.9-1.1l0.4-0.1l0.7-0.3l1-0.9l-0.1-0.6l0.4-0.1l1.5-2.4l1.1-0.7H44l0.3-0.7l0.4-0.1l0.4-0.6l0.9,0.4l0.2,0.2l1.6-0.4l0.4-0.5h0.5
	l1.6-0.9V7.1l0.4-0.2l1,0.1l0.5,0.7l-0.1,1.8l-0.6,0.1l-0.4,0.2l0.1,1.1l-1,0.5l-0.1,0.8l0.2,0.4l0,0.7l-0.6,0.9h-0.7L48.7,14
	l-0.9,0.4l-0.7,0.8l-0.2,1.2l-0.6,0.3l0.2,0.4l-0.3,0.7l-0.7,0.7l0.1,0.3L45.4,19.3L45.4,19.3z"/>
	<path name="BUENAVISTA" data-id="826" id="path3284_1_" class="cls-1" d="M34.7,49.4L34.5,49l-0.4-0.3l-0.2-1.2L34,47l-0.1-1l-0.3-0.1l-0.2-0.4l-0.6-0.2l-0.6,0.4
	l-1.6,0.1l-1.9,1.2l-0.1,0.5l0.4,0.3L28.7,48l0.3,0.9l0,0.6l-0.2,0l-0.6,0.3l-0.5-0.1l-0.4,0.2l-0.3,0.4l-0.7,0.6h-0.7L25.4,51
	L25,53l0.1,0.7l0.4-0.4h0.3l0.4,0.9l0.5-0.2l0.2,0.3l0.4-0.3l0.3,0l-0.2,0.4l0.3,0.5l0.4-0.1l0.4,0.2l0.2-0.1l0.7,0.5h0.9l1.3-0.8
	l1.8-0.2l0.4,0.1l1-0.5l0.2-0.5l0.5,0l-0.2-0.4l-0.1-0.4l-0.6-0.7l0.2-0.9l0-0.8l-0.2-0.3L34.7,49.4L34.7,49.4z"/>
	<path name="FILANDIA" data-id="830" id="path6538_1_" class="cls-1" d="M55.7,2.7l-0.4-0.2l-0.5-0.7l-1.1,0l-1.2,0.7h-0.6l-0.7-1l-0.8,0.2l-0.8,1.1l-0.9,0l-0.8-0.4
	l-0.9,0.2l-1.3-0.4l-0.7-0.6l-0.3,0.3l-0.7,0.1v0.5l-0.7,0.7l-0.8-0.7l-0.9-0.1l0-0.4L41.2,2h-0.7l-0.2-0.5L39.6,1l-0.7,0l-0.5-0.5
	h-0.8l-0.4,0.3L36.2,1l-0.7-0.1l-0.2,0.1l0.7,0.6l-0.3,1.9l0.5,1.5l-0.2,1l0.8,1.4l-0.2,1.4l-0.6,0.7l-1,0.2l-1.8-0.1l-1.6-0.5
	l-0.9,0.2l0.4,1.2l0.4,0l0.2,1.8l-0.2,1l-0.4,0.1l-0.5,0.8l-0.2,0.1V15l-0.3,0.2l1.1,0.6l0.3,0.1l0.2,0.4l0.4,0.1l0.2,0.3l0.4,0.1
	l0.2-0.5l0.9-0.4l0.3-0.1l0.8-0.4l0.4-0.9l0.3,0.1l0.4-0.2l0.3,0.1l-0.1,0.6l0.1,0.3l-0.5,0.4l0.4,0.2l0.1-0.2l0.7,0L36.8,16
	l0.2,0.3l-0.2,0.5l0.4-0.2l0.4,0.2l0-0.4l0.9-1.1l0.4-0.1l0.7-0.3l1-0.9l-0.1-0.6l0.4-0.1l1.5-2.4l1.1-0.7H44l0.3-0.7l0.4-0.1
	l0.4-0.6l0.9,0.4l0.2,0.2l1.6-0.4l0.4-0.5h0.5l1.6-0.9V7.1l0.4-0.2l1,0.1l0.6-0.2l0-0.8l0.5-0.2l0.3-0.7l0.8-0.4L54.4,5l0.2-0.6
	l0.5-0.1l0.2-0.4l0.4-0.1l0.1-0.7l0.7-0.6L55.7,2.7z"/>
	<path name="QUIMBAYA" data-id="835" id="path6633_1_" class="cls-1" d="M30.7,9.3L30,9.9l-1.4,0.2l-1.1-0.9h-0.8l-1.6-0.6h-0.7l-1.6,0.6h-1.1l-0.8-0.9h-0.6L19.4,8
	L19,8.8v0.8l-1.3,1.7L16,11.9l-0.4,0.6l0.1,0.7l-0.5,0.1L15,14.5l-0.6,1l-0.7,0l-0.5,1l1,1.1l-0.3,0.1l0.6,0.7l-1.1,0.3l-0.2,0.5
	l-0.8,0.7l0.5,0.5l0.3,0.1l0.1-0.3l0.2,0.4h0.3l0.4,0.2l0.3-0.1l0.3,0.3l0-0.4l0.4,0.1l0.2,0.3v0.4l0.3,0.2v0.4l0.3-0.3l0-0.3
	l0.3,0.2v0.3l0.3,0l0.1-0.4l0.4-0.3l0.4,0.3L17,21.6l0.1,0.3l0.4-0.4l0.2,0.5l0.4-0.4l0.3,0.4l0.5,0l0.5-0.2l0-0.2l0.6,0.2l0.5-0.3
	l0.2-0.2l0.7,0.1l0.5,0.4l0.7,0.2l0,0.3l0.7-0.1l0.1,0.3l1.2,0.2l0.1-0.1l0.5,0.3l0-0.4l0.3-0.1l0.4-0.3l0.3,0.4l0.5-0.1v-0.4
	l0.2-0.1l0.1,0.2l0.8-0.1l0.1-0.1l0.7-0.4l0.1,0.3l0.9,0.3l0.2-0.4l0.2,0l0.3-0.5v-0.3l0.4-0.4l0.2,0.6l0.4,0l0-0.6l0.4-0.4l0.1-0.3
	h0.2l0.3-0.3L32.4,19l0.2-0.3l0.3,0.5l0.6,0V19l0.4,0l0.2-0.3l0.9,0.2l0.1-0.9l0.5,0.1l0.5-0.5l0-0.5l0.7-0.4v0l0.2-0.5L36.8,16
	l0.2-0.4l-0.7,0l-0.1,0.2l-0.4-0.2l0.5-0.4l-0.1-0.3l0.1-0.6l-0.3-0.1l-0.4,0.2l-0.3-0.1L35,15.3l-0.8,0.4l-0.3,0.1l-0.9,0.4
	l-0.2,0.5l-0.4-0.1l-0.2-0.3l-0.4-0.1l-0.2-0.4l-0.3-0.1l-1.1-0.6l0.3-0.2v-0.7l0.2-0.1l0.5-0.8l0.4-0.1l0.2-1l-0.2-1.8l-0.4,0
	l-0.4-1.2L30.7,9.3z"/>
	<path name="MONTENEGRO" data-id="833" id="path6645_1_" class="cls-1" d="M12.8,37.6l0.2-0.3h0.3l0.3-0.1l0.5,0.4l0.2-0.2l0.5,0.3l0.2-0.1l0,0.5h0.6l0.1-0.1l0.2,0.1
	l0,0.3h0.3l0.1,0.2l0.1-0.3l0.4,0.2l0.1,0.3l0.2-0.1l0.2,0.3l0.2-0.3l0.2,0.1c0,0,0.5,0,0.6,0s0.3,0,0.3,0l0.8-0.2l0.3,0l0-0.5
	c0,0,0.4,0,0.5,0c0.1,0,0.1,0.2,0.1,0.2l0.1,0l-0.1-0.3l0.2-0.1l0.1-0.3h0.3l0.1-0.3L21,37.3l0-0.1h0.3l0.2-0.3l0.4,0.1l-0.2-0.6
	l0.1-0.1l-0.2-0.2l0.4-0.3h0.3l-0.2-0.3l0.4-0.2h0.4l0-0.4l0.1-0.5l0.7,0.2l1.2-0.5l-0.2-0.5l-0.5,0l0.3-0.6l0.7-0.8l-0.2-0.5
	l0.5-0.5l-0.2-0.5l0.9-1.3l0.4-0.4l0.2-1.3l0.3-0.3L27,27.2l0.8-0.8l0.7-0.1l0.3,0.3l0.5-0.1l0.3-0.5c0,0,0.7,0.7,0.9,0.7
	c0.2,0,0.2-0.3,0.2-0.3l0.4,0l0.4-0.5l0.7-0.2l0.5-0.4l0.5,0.1l0.1-0.2l0.8-0.2v-0.3l-0.5,0.1l0.3-0.5l-0.6,0.2l0-1.2l0.3-0.2
	l-0.1-0.3l0.5-0.4l0.4,0.2l0.2-0.1l-0.3-0.4l-1-0.3l-0.2,0.1h-0.3l-0.4-0.5l0.1-0.3L32,20.3h0l-0.4,0.4l0,0.6l-0.4,0l-0.2-0.6
	l-0.4,0.4v0.3l-0.3,0.5l-0.2,0l-0.2,0.4L28.9,22l-0.1-0.3L28,22.1l-0.1,0.1l-0.8,0.1L27,22.1l-0.2,0.1v0.4l-0.5,0.1l-0.3-0.4
	l-0.4,0.3l-0.3,0.1l0,0.4l-0.5-0.3l-0.1,0.1l-1.2-0.2l-0.1-0.3l-0.7,0.1l0-0.3l-0.7-0.2l-0.5-0.4l-0.7-0.1l-0.2,0.2l-0.5,0.3
	l-0.6-0.2l0,0.2l-0.5,0.2l-0.5,0l-0.3-0.4l-0.4,0.4l-0.2-0.5l-0.4,0.4L17,21.6l0.3-0.3L16.9,21l-0.4,0.3l-0.1,0.4l-0.3,0v-0.3
	l-0.3-0.2l0,0.3l-0.3,0.3v-0.4l-0.3-0.2v-0.4l-0.2-0.3l-0.4-0.1l0,0.4l-0.3-0.3l-0.3,0.1l-0.4-0.2h-0.3l-0.2-0.4l-0.1,0.3l0.1,0.6
	l0.9,0.4l-0.6,0.4v0.6h-0.5v0.6l-1.3,0.7l0.7,0.8l0.7,0.7l-0.4,0.4l-0.5-0.2l-0.6,0.5v1l-0.5,0.8l0.8-0.2l0.1,0.3l0.6,0.2l-0.6,0.6
	l0.8,0.3L13,29.4l-0.3,0.2l0.4,0.9l-0.6,0.6l0.3,0.9l-0.8,0.1v0.7l-0.6,0.9l0.7,0.4h0.5l0.3,0.6L12.5,35l-0.1,0.6l-1.2,0.6l0.6,0.2
	v1l1.1,0.5L12.8,37.6z"/>
	<path name="LA TEBAIDA" data-id="832" id="path6626_1_" class="cls-1" d="M23.4,47.1l0.9-0.5l0.3,0.5l0.2-0.4c0,0,0.3,0.2,0.4,0.2c0.1,0,0.6-0.2,0.6-0.2l0.3,0.1h0
	l0-0.6l-0.2-0.1l-0.4,0.2l-0.3-0.8l-0.4-0.1l0.2-0.4l-0.1-0.2l0.4-0.5l0.5-0.3h0.5l0.1-0.3h0.3l0.6-0.3l0-0.2l0.2-0.4l0.4,0l0.2-0.6
	l0.2-0.1v-0.4l-0.2-0.1l0.1-0.5l0.2-0.1l0-0.3l0.2-0.3l0.1-0.4l-0.2-0.3l0.3-0.1l0-0.7l-0.2,0l-0.4,0.6l-0.7,0.2l-0.5,0l0.3-0.3
	l0.1-0.6L26.6,39l-1,0.1l0.2-0.3l0.8-0.3l0.7-0.3l0.2-0.5L27.3,37l0.3-0.4l0-0.4l-0.4,0.2L27.1,36L26.8,36l0.1-0.5l1-0.6l1.4,0
	l1-0.7l0.2-0.5l0.4-0.3l-0.8-0.1l-0.6,0.2l-0.6,0l-0.5,0.2l-1-0.1l-0.8,0.3l-0.1-0.2H26l-0.4,0.4L25.4,34l-0.2,0.4h-0.6l-0.2,0.2
	L24,34.7L23.7,35l-0.8-0.1l0,0.4h-0.4l-0.4,0.2l0.2,0.3H22l-0.4,0.3l0.2,0.2l-0.1,0.1l0.2,0.6l-0.4-0.1l-0.2,0.3H21l0,0.1l0.2,0.2
	l-0.1,0.3h-0.3l-0.1,0.3l-0.2,0.1l0.1,0.3l-0.1,0c0,0-0.1-0.2-0.1-0.2c-0.1,0-0.5,0-0.5,0l0,0.5l-0.3,0l-0.8,0.2c0,0-0.2,0-0.3,0
	c-0.1,0-0.6,0-0.6,0l-0.2-0.1L17.3,39l-0.2-0.3l-0.2,0.1l-0.1-0.3l-0.4-0.2l-0.1,0.3l-0.1-0.2h-0.3l0-0.3L15.6,38l-0.1,0.1h-0.6
	l0-0.5l-0.2,0.1l-0.5-0.3L14,37.5l-0.5-0.4l-0.3,0.1H13l-0.2,0.3l0.2,0.3l0.4,0.1l-0.7,0.8H12l-0.7,0.6h-1.1l0.8,0.7l-0.8,0.3
	l0.3,1.3l-0.9,0.4l-0.4,0.3l0.8,0.4l-0.9,0.6l0.2,0.4l1.3,0.3l0.2-0.2l0.2,0.4l1.6,0.1l0.4,0.1l0.2-0.4h0.3l1-0.5l0.5,0.8L16,45
	l0.6-0.2h0.6l0.4,1.1l0.8-0.4l0.3-0.8l0.7,0.6l0.2,0.4l0.5-0.3l0.2,0.8l0.9-0.5l0.3,0.3l0.9,0.3l0.8,0.8L23.4,47.1z"/>
	<path name="GÉNOVA" data-id="831" id="path6559_1_" class="cls-1" d="M42.9,71.3l-0.5-0.1l-0.3-0.8l-0.5-0.1l-0.5-0.9l-1.8-0.6H39l-0.5-0.2L37,68.6l-1.2,0.6
	l-0.5,0.6l-1.5,0.5L32.1,70l-0.7-1.2l-1.4-0.4L29.4,68l-0.5-0.1l-0.2-0.4l0.5-0.5l0.2-1.4l0.6-0.4l0.1-0.7l0.4-0.6l0-0.5
	c0,0,0.1,0,0.1-0.1c0-0.1-0.1-0.7-0.1-0.7l-0.4-0.1l-0.4,0.1l-0.3-0.4l-0.6,0.1l-0.7-0.8l-0.6-0.1l-0.6,0.1l-0.5-0.4l-0.1-0.3
	l-0.2-0.5l-0.6,0.1l-0.4-0.7l-0.7-0.1l-0.7-0.5l-0.2,0.6l0.9,0.3l-0.2,0.5l0.5,0.5l-0.1,0.3l-0.2,0.2l-0.2,0.7l-0.3,0.3l-0.1,1.2
	l-0.6,0.3v0.7l-0.4,1h0l-1,0.7v1l-0.6,1.1l-0.6,0.2l0,0.7l-0.2,0.1l0,0.3l0.2,0.3l-1,0.8l-0.4,1.6l0.5,1l0.5,0.7L20,75.7l-0.6,0.7
	l-1.6,3.2l-0.1,0.8l-0.8,0.9l0.1,1.2l0.3,0.2l-0.1,0.4l-0.2,0l-0.2,0.4l0.5,1.2l-0.5,0.4l0.7,1.5l0.7,0.1v1l-0.9,0.7l0.1,1l0.7,0
	l0.2-0.3h1.2l1.7,0.9l1.4,0.1l1.2,0.7l1.3,0.1v-0.5l0.6,0.5l0.1,1.1l0.3,0.6l2.6-0.2l1.4,0.4l0.5-1l-0.3-0.7l0.4-1.3l0.8-0.6
	l1.3-0.1l0.1-0.8l-0.6-0.9l0.5-0.5l1,0.6l0.8-0.1h0.4l-0.1-1.2l0.6-0.8l1-0.4l0.4,0.5l0.5-0.9l1.1-0.1l0.3-0.8l-0.2-1.2l0-0.8L39,81
	l-0.4-0.8l0.4-0.8l0.9-0.4l0.8-1.4l1-0.5l0.5-1.1l0-0.7l1.2-0.3l0.7-0.8l0-1.5l-0.8-0.3l-0.1-0.8L42.9,71.3z"/>
	<path name="CÓRDOBA" data-id="829" id="path6549_1_" class="cls-1" d="M54.4,42.8l-0.6,0.5l-0.5,0L52,42.6l-0.3-0.8L50,41.1l-0.7,0.2l-0.6,0.9h-0.9l-0.5,0.2
	l-0.2,0.6L46.7,43l-0.3-0.6l-0.6,0.9l-0.9,0l-0.8,0.2l-0.9-0.7L42,42.8l-0.8,0.4l-2.4-0.2l-0.5-0.4l-0.8-0.1l-0.9,0.8L35.9,43h-0.5
	v0.1l-0.2,0.3l0.1,0.3L35,44.1l-0.3,0.5l-0.2-0.2l-0.5,0l0.1,0.3l-0.3,0.5l-0.3-0.3l-0.1,0.2l0.1,0.4l-0.2,0.2l0.2,0.4l0.3,0.1
	l0.1,1l-0.1,0.4l0.2,1.2l0.4,0.3l0.2,0.4l0.4,0.3l0.3,0l0.1,0.3l0.4,0.1l0,0.6l0.1,0l0.2,0.3l0.5-0.6l0.4,0.2l0.4,0l0.2-0.4l0.3,0
	l0.1,0.6l0.7,1.3l0.7,0.1l0.8-0.4l0.9-0.2l0.2,0.2h0.8l0.6-0.2l0.5,0l0.3,0.3l0.6,0l1-0.9l0.8-1.4l0.8-1l0.5,0.4l1.8-0.2l1,0.8
	l0.5,0.2l0.8,0.8l0,0.4l1.5,1.1l0.6-0.5l-0.1-1.2l-0.2-0.6l0.4-0.6l1-1.2l-0.1-0.8l0.6-1.8l-0.5-0.7l0.3-0.3v-0.9l-0.4-0.5
	L54.4,42.8z"/>
	<path name="CALARCA" data-id="827" id="path6543_1_" class="cls-1" d="M23,47.6l-0.5,0.3L22.4,49L22,49.5l0.6,0.4l0.1,0.8l0.4,0.4l0.3-0.1l0.6,0.4l-0.3,0.9l0.8,0.4
	l0.2,0.5l-0.9,0.6l0.2,0.7l0.8-0.3l0.4-0.5L25,53l0.4-2l0.3-0.2h0.7l0.7-0.6l0.3-0.4l0.4-0.2l0.5,0.1l0.6-0.3l0.2,0l0-0.6L28.7,48
	l0.3-0.4l-0.4-0.3l0.1-0.5l1.9-1.2l1.6-0.1l0.6-0.4l0.6,0.2l0.2-0.2l-0.1-0.4l0.1-0.2l0.3,0.3l0.3-0.5L34,44.4l0.5,0l0.2,0.2
	l0.3-0.5l0.4-0.3l-0.1-0.3l0.2-0.3V43h0.5l0.6,0.5l0.9-0.8l0.8,0.1l0.5,0.4l2.4,0.2l0.8-0.4l1.3,0.1l0.9,0.7l0.8-0.2l0.9,0l0.6-0.9
	l0.3,0.6l0.4,0.1l0.2-0.6l0.5-0.2h0.9l0.6-0.9l0.7-0.2l1.8,0.7l0.3,0.8l1.2,0.8l0.5,0l0.6-0.5l0-0.5l0.8-0.5l0-1l0.3-0.4L55.1,39
	l0.3-0.3l1.1,0l-0.3-0.6l1.1-2.2l0.5-0.1l0-0.3l-0.5,0l-1.2-1.1v-0.8l0.4,0.1l0.2-0.4l-0.5-0.2l0.6-0.7l-0.4-0.2H56l-0.3-0.6
	l0.5,0.2L56,31.5l-0.8-0.2l-0.3-0.9l-0.2-0.6l-0.5-0.3h-0.4l-0.1-0.3l-0.4-0.1L53,28.4l-0.4-0.6L52,27.6l-0.2-0.4l0.2-0.7l-0.5-0.6
	l-1.3-0.1l-0.5-0.2l0.3-0.4l0.1-1.2l0.4-0.7L50,22.6l-0.8-0.5l-0.5,0.1l-0.7-0.4l-1,0l-0.7,0.7l-0.4-0.1l0,0.5l-0.4,0.2l0,0.5v0.6
	l-0.6,0.7L44.4,25l-0.4,1l-0.3,0.1l-0.8,0.6l-0.1,0.5l-0.4,0.2L42.1,28l-0.8,0.3v0.4l-0.6,0.1l-0.4-0.3l-0.2,0.1l-0.5,0l0.3,0.5
	l-0.1,0.2l-0.6,0.1l0.1,0.4L39.1,30l0.1,0.1l-0.1,0.7l0,0.5l-0.3,0.3L38.7,32l-0.2,0.6L38,32.7l-0.5,0.4l-0.2,0.6l-0.4,0.1l-0.1,0.4
	h-0.4l0.2,0.7L36,35.1l-0.1,0.3l0.3,0.2l-0.4,0.3l0.1,0.3l-0.1,0.5l-0.5,0.1l-0.1,0.5l0.2,0.2c0,0-0.2,0.1-0.4,0.1
	c-0.1,0.1,0.2,0.3,0.2,0.3l-0.5,0.6l-0.2,0.6l-0.3,0.4l-0.5,0.1l-0.1,0.7L33.1,40l-0.3,0.3l-0.2,0.4l-0.5,0L32,41.1l0.1,0.4
	l-0.7-0.1l-0.3,0.3l-0.5-0.3l-0.4,0.3l0.2,0.3v0.4l-0.4,0.1v0.8l-0.3,0.6v0.4l-0.8,0.2l-0.2-0.3l-0.6,1l0.1,0.3L28,46l0.1,0.3
	l-0.5,0.6l-1.4-0.1l-0.3-0.1c0,0-0.5,0.2-0.6,0.2c-0.1,0-0.4-0.2-0.4-0.2l-0.2,0.4l-0.3-0.5l-0.9,0.5l-0.2,0L23,47.6z"/>
	<path name="SALENTO" data-id="836" id="path6529_1_" class="cls-1" d="M55.8,3.2l-0.1,0.7l-0.4,0.1l-0.2,0.4l-0.5,0.1L54.4,5l-0.6-0.2l-0.8,0.4l-0.3,0.7l-0.5,0.2
	l0,0.8L51.7,7l0.5,0.7l-0.1,1.8l-0.6,0.1l-0.4,0.2l0.1,1.1l-1,0.5l-0.1,0.8l0.2,0.4l0,0.7l-0.6,0.9h-0.7L48.7,14l-0.9,0.4l-0.7,0.8
	l-0.2,1.2l-0.6,0.3l0.2,0.4l-0.3,0.7l-0.7,0.7l0.1,0.3l-0.2,0.6l0.5,0.7l-0.3,0.2v0.7l-0.3,0.5l0.3,0.4l0.5-0.5l0.2,0.3l0.4,0.3
	l1,0.1l0.7,0.4l0.5-0.1l0.8,0.5l0.4,0.9L50,24.2l-0.1,1.2l-0.3,0.4l0.5,0.2l1.3,0.1l0.5,0.6l-0.2,0.7l0.2,0.4l0.7,0.1l0.4,0.6
	l0.2,0.8l0.4,0.1l0.1,0.3h0.4l0.5,0.3l0.2,0.6l0.3,0.9l0.8,0.2l0.2,0.6l-0.5-0.2l0.3,0.6h0.4l0.4,0.2l-0.6,0.7l0.5,0.2l-0.2,0.4
	l-0.4-0.1v0.8l1.2,1.1l0.5,0l0,0.3l1.4-0.7l0.5-0.5l0.3-0.9l1.4-1.2l1.1-0.1l0.5-0.6l-0.4-0.8l-0.3-0.9v-0.5l0.4-0.3l-0.1-0.9
	l0.7-0.4L63.2,27L63,25.9l0.4-0.6l0-0.6l0.6-1l2.4-0.8l1.6-1.5l0.7-1.5l0.9-0.2l0.9-0.8l0.2-1.3l1-0.2l0.3-0.2l0.7,0.1l0.6-0.3
	l1.9,0l1.1-0.3l0.2-0.8l1.1,0.1l0.8-1.6l0.3-1.5l-1.1-3.4l0.7-2.2l1.4-1l0.7-1.4L81.3,4l1.4-0.6l0.6-0.8l-0.3-0.6l0-0.6l-0.6-0.4
	l-1.3,0.2l-0.4,0.4l-0.5-0.3l-0.5,0.3v1.1L79,3.5l-1.3,0.1l-0.3,0.5l-0.3,0.2l-1-1.1l-0.8,0.2L75.2,4l0.2,1l-0.8,0.9h-1.7l-1.8,0.4
	L70,6.9l-0.8,1l-1,0.3l-1.1-1l-0.9-1.4l-1.3-1l-0.3-0.5l-1.5-0.5L62,4l-3-0.9l-0.6-0.6l-0.8-0.1l-0.8,0.5l-0.3-0.2L55.8,3.2z"/>
	<path name="PIJAO" data-id="834" id="path6565_1_" class="cls-1" d="M23.9,54.5l0.8-0.2l0.5-0.5l0.4-0.4h0.3l0.4,0.9l0.5-0.2l0.2,0.3l0.4-0.3l0.3,0l-0.2,0.4
	l0.3,0.5l0.4-0.1l0.4,0.2l0.2-0.1l0.7,0.5h0.9l1.3-0.8l1.8-0.2l0.4,0.1l1-0.5l0.2-0.5l0.5,0l-0.2-0.4l-0.1-0.4l-0.6-0.7l0.2-0.9
	l0-0.8l-0.2-0.3l0.1-0.5h0l0.3,0.3l0.3,0l0.1,0.3l0.4,0.1l0,0.6l0.1,0l0.2,0.3l0.5-0.6l0.4,0.2l0.4,0l0.2-0.4l0.3,0l0.1,0.6l0.7,1.3
	l0.7,0.1l0.8-0.4l0.9-0.2l0.2,0.2h0.8l0.6-0.2l0.5,0l0.3,0.3l0.6,0l1-0.9l0.8-1.4l0.8-1l0.5,0.4l1.8-0.2l1,0.8l0.5,0.2l0.8,0.8
	l0,0.4l1.5,1.1l-0.3,0.5l0,0.5l0.4,0.6l-0.4,1.5l-0.6,0.6l0.5,1.4l-0.2,0.7l0.3,0.5l-0.5,0.6l0.2,0.5l-0.1,0.5L51.9,60l-0.6,1
	l0.1,1.4l1,0.8l-0.1,0.5L52,64.1l-0.7,0.1l-0.2,0.4l-1.1,0l-0.7,0l-0.5,0.7l-0.1,1l-1.4,0.8l0,0.5l0.3,0.7l-0.2,0.8l-0.7,1l-1,0.5
	L44,70.8l-0.9,0.9l-0.3-0.4l-0.5-0.1l-0.3-0.8l-0.5-0.1l-0.5-0.9l-1.8-0.6H39l-0.5-0.2L37,68.6l-1.2,0.6l-0.5,0.6l-1.5,0.5L32.1,70
	l-0.7-1.2l-1.4-0.4L29.4,68l-0.5-0.1l-0.2-0.4l0.5-0.5l0.2-1.4l0.6-0.4l0.1-0.7l0.4-0.6l0-0.5c0,0,0.1,0,0.1-0.1
	c0-0.1-0.1-0.7-0.1-0.7l-0.4-0.1l-0.4,0.1l-0.3-0.4l-0.6,0.1l-0.7-0.8l-0.6-0.1l-0.6,0.1l-0.5-0.4l-0.1-0.3l-0.2-0.5l-0.6,0.1
	l-0.4-0.7l-0.7-0.1l-0.7-0.5l0.1-0.2l-0.6-0.6l0.5-1.2l0.4-0.6l0.3-1l-0.3-0.8L23.9,54.5z"/>
</svg>
